<svg width="119" height="119" viewBox="0 0 119 119" fill="none" xmlns="http://www.w3.org/2000/svg">
<g filter="url(#filter0_d_1136_332)">
<path d="M114.38 55.1899C114.38 85.6705 89.6705 110.38 59.1899 110.38C28.7094 110.38 4 85.6705 4 55.1899C4 24.7094 28.7094 0 59.1899 0C89.6705 0 114.38 24.7094 114.38 55.1899Z" fill="white"/>
</g>
<path d="M59.54 68.9943L76.0628 84.7729L59.54 93.0487L41.5305 74.1177L59.54 68.9943Z" fill="#8DD9BA"/>
<path d="M59.8293 67.2013L76.3521 82.98L59.8293 91.2558L41.8198 72.3247L59.8293 67.2013Z" fill="#716054"/>
<path d="M60.2878 65.8127L76.8106 81.5913L60.2878 89.8671L42.2783 70.9361L60.2878 65.8127Z" fill="url(#paint0_linear_1136_332)"/>
<path d="M59.1954 71.6484L67.2949 75.6011L63.5344 83.1113L52.5422 77.9728L59.1954 71.6484Z" fill="url(#paint1_radial_1136_332)"/>
<g clip-path="url(#clip0_1136_332)">
<path d="M70.168 62.759C66.0467 66.8803 60.3404 66.1396 60.3404 66.1396C60.3404 66.1396 59.5995 60.4332 63.7209 56.3119C68.3104 51.7225 75.8373 50.6426 75.8373 50.6426C75.8373 50.6426 74.7693 58.1577 70.168 62.759Z" fill="#0EB56B"/>
<path d="M49.6089 62.759C53.7302 66.8803 59.4366 66.1396 59.4366 66.1396C59.4366 66.1396 60.1774 60.4332 56.056 56.3119C51.4666 51.7225 43.9397 50.6426 43.9397 50.6426C43.9397 50.6426 45.0076 58.1577 49.6089 62.759Z" fill="#8DD9BA"/>
<path d="M69.2944 45.8617C65.5234 49.6328 60.3023 48.9549 60.3023 48.9549C60.3023 48.9549 59.6245 43.7338 63.3955 39.9628C67.5948 35.7635 74.4819 34.7754 74.4819 34.7754C74.4819 34.7754 73.5048 41.6515 69.2944 45.8617Z" fill="#8DD9BA"/>
<path d="M50.4827 45.8619C54.2537 49.6329 59.4748 48.9551 59.4748 48.9551C59.4748 48.9551 60.1526 43.7339 56.3816 39.9629C52.1824 35.7636 45.2952 34.7754 45.2952 34.7754C45.2952 34.7754 46.2726 41.6516 50.4827 45.8619Z" fill="#0EB56B"/>
<path d="M68.2828 29.8181C64.9173 33.1836 60.2576 32.5787 60.2576 32.5787C60.2576 32.5787 59.6527 27.919 63.0182 24.5535C66.7661 20.8056 72.9125 19.9238 72.9125 19.9238C72.9125 19.9238 72.0403 26.0605 68.2828 29.8181Z" fill="#0EB56B"/>
<path d="M51.4942 29.8181C54.8597 33.1836 59.5194 32.5787 59.5194 32.5787C59.5194 32.5787 60.1243 27.919 56.7588 24.5535C53.0109 20.8056 46.8645 19.9238 46.8645 19.9238C46.8645 19.9238 47.7367 26.0605 51.4942 29.8181Z" fill="#8DD9BA"/>
<path d="M59.8887 18.8868C59.7744 18.8868 59.6584 18.8744 59.5458 18.8516C59.4333 18.8288 59.3225 18.7953 59.217 18.7513C59.1098 18.7074 59.0077 18.6529 58.9129 18.5896C58.8162 18.5263 58.7265 18.4525 58.6456 18.3715C58.3185 18.0445 58.1304 17.5908 58.1304 17.1284C58.1304 17.0123 58.1427 16.8981 58.1656 16.7838C58.1867 16.6713 58.2219 16.5605 58.2658 16.4551C58.3098 16.3495 58.3643 16.2476 58.4276 16.1526C58.4908 16.0559 58.5647 15.9662 58.6456 15.8835C58.7265 15.8026 58.8161 15.7305 58.9129 15.6655C59.0079 15.6022 59.1098 15.5477 59.217 15.5037C59.3226 15.4598 59.4333 15.4264 59.5458 15.4035C59.7726 15.3577 60.0065 15.3577 60.2315 15.4035C60.344 15.4263 60.4549 15.4598 60.5602 15.5037C60.6674 15.5477 60.7695 15.6022 60.8643 15.6655C60.961 15.7305 61.0507 15.8026 61.1316 15.8835C61.2126 15.9661 61.2865 16.0558 61.3496 16.1526C61.4129 16.2476 61.4674 16.3495 61.5114 16.4551C61.5553 16.5606 61.5905 16.6713 61.6116 16.7838C61.6345 16.8981 61.6468 17.0141 61.6468 17.1284C61.6468 17.5908 61.4587 18.0446 61.1315 18.3715C61.0505 18.4525 60.9609 18.5263 60.8642 18.5896C60.7692 18.6529 60.6673 18.7074 60.56 18.7513C60.4545 18.7953 60.3439 18.8287 60.2314 18.8516C60.1189 18.8744 60.003 18.8868 59.8887 18.8868Z" fill="#403F3F"/>
<path d="M77.08 49.3983C76.6882 49.0071 76.1346 48.8231 75.5879 48.9019C75.2567 48.9493 67.4245 50.1218 62.4777 55.0684C62.179 55.3671 61.9029 55.6729 61.6469 55.9832V50.7541C63.7384 50.697 67.5144 50.1275 70.5378 47.1043C75.1103 42.5318 76.1795 35.3264 76.2227 35.0219C76.3006 34.474 76.116 33.9213 75.7244 33.5303C75.3326 33.1391 74.7793 32.9555 74.2323 33.0339C73.9274 33.0777 66.713 34.1576 62.1522 38.7185C61.9746 38.8961 61.8083 39.0771 61.6472 39.2595V34.3656C63.5777 34.2843 66.8721 33.7144 69.5266 31.0602C73.6516 26.9352 74.6147 20.4442 74.6535 20.1698C74.7314 19.622 74.5467 19.0693 74.1552 18.6784C73.7634 18.2873 73.2098 18.1033 72.663 18.182C72.3882 18.2214 65.8896 19.1944 61.7752 23.3088C61.731 23.353 61.6903 23.3982 61.6472 23.4429V22.4026C61.6472 21.4315 60.8597 20.6443 59.8888 20.6443C58.9177 20.6443 58.1305 21.4315 58.1305 22.4026V23.4429C58.0874 23.3985 58.0468 23.3531 58.0025 23.3088C53.888 19.1944 47.3892 18.2214 47.1146 18.182C46.5672 18.103 46.014 18.2873 45.6222 18.6784C45.2307 19.0695 45.046 19.6222 45.1239 20.1701C45.1629 20.4445 46.126 26.9352 50.251 31.0602C52.9056 33.7148 56.2002 34.2846 58.1305 34.3656V39.2597C57.9694 39.0773 57.803 38.8962 57.6254 38.7186C53.0646 34.1578 45.8502 33.0776 45.5454 33.034C44.9978 32.9553 44.4447 33.1393 44.053 33.5304C43.6614 33.9215 43.4767 34.4741 43.5547 35.022C43.5979 35.3264 44.667 42.5318 49.2397 47.1044C52.263 50.1279 56.0393 50.6973 58.1306 50.7542V55.9835C57.8746 55.6732 57.5987 55.3675 57.2998 55.0687C52.3533 50.1221 44.5208 48.9496 44.1899 48.9021C43.6423 48.8231 43.0892 49.0074 42.6975 49.3985C42.3059 49.7896 42.1212 50.3423 42.1992 50.8902C42.2461 51.2207 43.4069 59.0432 48.366 64.0026C51.7117 67.3483 55.9105 67.9111 58.1305 67.9477V69.8139C58.1305 70.7851 58.9177 71.5723 59.8888 71.5723C60.8598 71.5723 61.6472 70.7851 61.6472 69.8139V67.9477C63.8677 67.9111 68.0665 67.348 71.4119 64.0026C76.371 59.0432 77.5317 51.2207 77.5785 50.8902C77.6564 50.3419 77.4716 49.7892 77.08 49.3983ZM64.6388 41.2054C66.842 39.002 69.9542 37.7665 72.1381 37.1236C71.5 39.3006 70.2684 42.4 68.0509 44.6178C66.0912 46.5775 63.6013 47.0955 62.0358 47.2116C62.1464 45.6528 62.6618 43.1823 64.6388 41.2054ZM64.2618 25.7956C66.0912 23.9661 68.6384 22.8935 70.5392 22.3015C69.9515 24.1953 68.8816 26.7316 67.0396 28.5735C65.4248 30.1884 63.3922 30.6797 62.0218 30.8138C62.1559 29.4416 62.6474 27.4099 64.2618 25.7956ZM52.7376 28.5735C50.9061 26.742 49.8345 24.2013 49.2435 22.3033C51.1443 22.8957 53.6878 23.968 55.5153 25.7955C57.13 27.4104 57.6215 29.4431 57.7556 30.8136C56.3835 30.6792 54.3516 30.1878 52.7376 28.5735ZM51.7262 44.6177C49.5198 42.4112 48.286 39.3064 47.644 37.125C49.8285 37.7686 52.9371 39.0038 55.1386 41.2054C57.0939 43.1607 57.614 45.6442 57.7315 47.2103C56.1629 47.0926 53.6807 46.5721 51.7262 44.6177ZM50.8524 61.5154C48.3182 58.9813 46.9478 55.3789 46.2665 52.9678C48.676 53.6475 52.2737 55.0164 54.8128 57.5552C57.0689 59.8112 57.6055 62.6952 57.707 64.4182C55.9906 64.3229 53.127 63.7899 50.8524 61.5154ZM68.9248 61.5154C66.6728 63.7674 63.7953 64.3062 62.071 64.4092C62.174 62.6828 62.7132 59.8064 64.9644 57.5552C67.4933 55.0263 71.1003 53.6543 73.514 52.971C72.8363 55.3778 71.4695 58.9708 68.9248 61.5154Z" fill="#403F3F"/>
<path d="M59.8887 76.8459C59.7744 76.8459 59.6584 76.8353 59.5458 76.8125C59.4333 76.7897 59.3225 76.7562 59.217 76.7123C59.1098 76.6683 59.0077 76.6138 58.9129 76.5505C58.8162 76.4854 58.7265 76.4134 58.6456 76.3325C58.5647 76.2499 58.4908 76.1602 58.4276 76.0634C58.3643 75.9684 58.3098 75.8665 58.2658 75.7609C58.2219 75.6537 58.1867 75.5447 58.1656 75.4322C58.1427 75.3179 58.1304 75.2019 58.1304 75.0876C58.1304 74.9732 58.1427 74.8573 58.1656 74.7446C58.1867 74.6321 58.2219 74.5213 58.2658 74.4159C58.3098 74.3104 58.3643 74.2066 58.4276 74.1117C58.4908 74.0151 58.5647 73.9254 58.6456 73.8444C58.7265 73.7635 58.8162 73.6897 58.9129 73.6264C59.0079 73.5631 59.1098 73.5086 59.217 73.4646C59.3226 73.4207 59.4333 73.3873 59.5458 73.3644C59.7726 73.3186 60.0065 73.3186 60.2315 73.3644C60.344 73.3872 60.4549 73.4207 60.5602 73.4646C60.6674 73.5086 60.7695 73.5631 60.8643 73.6264C60.961 73.6897 61.0507 73.7635 61.1316 73.8444C61.2126 73.9254 61.2865 74.0151 61.3496 74.1117C61.4129 74.2067 61.4674 74.3104 61.5114 74.4159C61.5553 74.5214 61.5905 74.6321 61.6116 74.7446C61.6345 74.8571 61.6468 74.9732 61.6468 75.0876C61.6468 75.2019 61.6345 75.3179 61.6116 75.4322C61.5905 75.5447 61.5553 75.6537 61.5114 75.7609C61.4674 75.8665 61.4129 75.9684 61.3496 76.0634C61.2865 76.16 61.2126 76.2497 61.1316 76.3325C61.0507 76.4134 60.961 76.4854 60.8643 76.5505C60.7693 76.6138 60.6674 76.6683 60.5602 76.7123C60.4546 76.7562 60.344 76.7896 60.2315 76.8125C60.1189 76.8353 60.003 76.8459 59.8887 76.8459Z" fill="#403F3F"/>
</g>
<defs>
<filter id="filter0_d_1136_332" x="0" y="0" width="118.38" height="118.379" filterUnits="userSpaceOnUse" color-interpolation-filters="sRGB">
<feFlood flood-opacity="0" result="BackgroundImageFix"/>
<feColorMatrix in="SourceAlpha" type="matrix" values="0 0 0 0 0 0 0 0 0 0 0 0 0 0 0 0 0 0 127 0" result="hardAlpha"/>
<feOffset dy="4"/>
<feGaussianBlur stdDeviation="2"/>
<feComposite in2="hardAlpha" operator="out"/>
<feColorMatrix type="matrix" values="0 0 0 0 0 0 0 0 0 0 0 0 0 0 0 0 0 0 0.25 0"/>
<feBlend mode="normal" in2="BackgroundImageFix" result="effect1_dropShadow_1136_332"/>
<feBlend mode="normal" in="SourceGraphic" in2="effect1_dropShadow_1136_332" result="shape"/>
</filter>
<linearGradient id="paint0_linear_1136_332" x1="56.3956" y1="74.7516" x2="43.122" y2="70.56" gradientUnits="userSpaceOnUse">
<stop stop-color="#0EB56B"/>
<stop offset="1" stop-color="#07502F"/>
</linearGradient>
<radialGradient id="paint1_radial_1136_332" cx="0" cy="0" r="1" gradientUnits="userSpaceOnUse" gradientTransform="translate(59.9186 77.3799) rotate(90) scale(5.73143 7.37635)">
<stop stop-color="#5C5C5C"/>
<stop offset="0.41" stop-color="#1E1E1E" stop-opacity="0"/>
</radialGradient>
<clipPath id="clip0_1136_332">
<rect width="61.4774" height="61.4774" fill="white" transform="translate(29.1499 15.3691)"/>
</clipPath>
</defs>
</svg>
