<svg width="21" height="21" viewBox="0 0 21 21" fill="none" xmlns="http://www.w3.org/2000/svg">
<g clip-path="url(#clip0_1009_200)">
<path d="M14.875 8.75H16.625C18.375 8.75 19.25 7.875 19.25 6.125V4.375C19.25 2.625 18.375 1.75 16.625 1.75H14.875C13.125 1.75 12.25 2.625 12.25 4.375V6.125C12.25 7.875 13.125 8.75 14.875 8.75Z" stroke="white" stroke-width="2" stroke-miterlimit="10" stroke-linecap="round" stroke-linejoin="round"/>
<path d="M4.375 19.25H6.125C7.875 19.25 8.75 18.375 8.75 16.625V14.875C8.75 13.125 7.875 12.25 6.125 12.25H4.375C2.625 12.25 1.75 13.125 1.75 14.875V16.625C1.75 18.375 2.625 19.25 4.375 19.25Z" stroke="white" stroke-width="2" stroke-miterlimit="10" stroke-linecap="round" stroke-linejoin="round"/>
<path opacity="0.34" d="M5.25 8.75C7.183 8.75 8.75 7.183 8.75 5.25C8.75 3.317 7.183 1.75 5.25 1.75C3.317 1.75 1.75 3.317 1.75 5.25C1.75 7.183 3.317 8.75 5.25 8.75Z" stroke="white" stroke-width="2" stroke-miterlimit="10" stroke-linecap="round" stroke-linejoin="round"/>
<path opacity="0.34" d="M15.75 19.25C17.683 19.25 19.25 17.683 19.25 15.75C19.25 13.817 17.683 12.25 15.75 12.25C13.817 12.25 12.25 13.817 12.25 15.75C12.25 17.683 13.817 19.25 15.75 19.25Z" stroke="white" stroke-width="2" stroke-miterlimit="10" stroke-linecap="round" stroke-linejoin="round"/>
</g>
<defs>
<clipPath id="clip0_1009_200">
<rect width="21" height="21" fill="white"/>
</clipPath>
</defs>
</svg>
