<svg width="21" height="21" viewBox="0 0 21 21" fill="none" xmlns="http://www.w3.org/2000/svg">
<g clip-path="url(#clip0_1013_9)">
<path d="M18.2632 13.1068L16.4873 9.99894C16.4277 9.89451 16.3167 9.83008 16.1964 9.83008H4.80277C4.68251 9.83008 4.57144 9.89451 4.5118 9.99894L2.72459 13.1266C2.66532 13.2303 2.66573 13.3577 2.72565 13.461C2.78566 13.5644 2.89603 13.6279 3.01551 13.6279H4.46763V20.6652C4.46763 20.8503 4.61762 21.0003 4.80273 21.0003H16.1964C16.3815 21.0003 16.5315 20.8503 16.5315 20.6652V13.628H17.9845C18.1696 13.628 18.3196 13.478 18.3196 13.2929C18.3196 13.224 18.2989 13.16 18.2632 13.1068ZM3.59297 12.9578L4.99727 10.5003H9.92219L8.51789 12.9578H3.59297ZM15.8613 20.3301H10.8347V17.9844C10.8347 17.7993 10.6847 17.6493 10.4996 17.6493C10.3145 17.6493 10.1645 17.7993 10.1645 17.9844V20.3301H5.13787V13.628H8.71235C8.8326 13.628 8.94367 13.5635 9.00331 13.4591L10.1645 11.4271V16.6439C10.1645 16.829 10.3145 16.979 10.4996 16.979C10.6847 16.979 10.8347 16.829 10.8347 16.6439V11.4271L11.9958 13.4591C12.0555 13.5636 12.1665 13.628 12.2868 13.628H15.8613V20.3301H15.8613ZM12.4813 12.9578L11.077 10.5003H16.0019L17.4062 12.9578H12.4813Z" fill="white"/>
<path d="M15.2693 2.45746C15.4544 2.45746 15.6044 2.30746 15.6044 2.12236V0.335098C15.6044 0.149994 15.4544 0 15.2693 0H5.66286C5.47775 0 5.32776 0.149994 5.32776 0.335098V2.12232C5.32776 2.30742 5.47775 2.45741 5.66286 2.45741H5.77454V3.12761H5.66286C5.47775 3.12761 5.32776 3.27761 5.32776 3.46271V5.25001C5.32776 5.43511 5.47775 5.58511 5.66286 5.58511H5.77454V6.2553H5.66286C5.47775 6.2553 5.32776 6.4053 5.32776 6.5904V8.37762C5.32776 8.56273 5.47779 8.71272 5.66286 8.71272H15.2693C15.4544 8.71272 15.6044 8.56273 15.6044 8.37762V6.5904C15.6044 6.4053 15.4544 6.2553 15.2693 6.2553H15.1576V5.58511H15.2693C15.4544 5.58511 15.6044 5.43511 15.6044 5.25001V3.46279C15.6044 3.27769 15.4544 3.12769 15.2693 3.12769H15.1576V2.4575L15.2693 2.45746ZM14.9341 8.04256H5.99796V6.92554H14.9341V8.04256ZM14.9341 4.91491H13.482C13.2969 4.91491 13.1469 5.06491 13.1469 5.25001C13.1469 5.43511 13.2969 5.58511 13.482 5.58511H14.4873V6.2553H6.44478V5.58511H12.1416C12.3267 5.58511 12.4767 5.43511 12.4767 5.25001C12.4767 5.06491 12.3267 4.91491 12.1416 4.91491H5.99796V3.79789H14.9341V4.91491ZM6.44478 3.12765V2.45746H14.4873V3.12765H6.44478ZM14.9341 1.78722H5.99796V0.670197H14.9341V1.78722Z" fill="white"/>
</g>
<defs>
<clipPath id="clip0_1013_9">
<rect width="21" height="21" fill="white"/>
</clipPath>
</defs>
</svg>
