<svg width="800" height="800" viewBox="0 0 800 800" fill="none" xmlns="http://www.w3.org/2000/svg">
<g clip-path="url(#clip0_1077_4)">
<path fill-rule="evenodd" clip-rule="evenodd" d="M26.6665 107.032C26.6665 77.3753 50.6637 53.3333 80.3648 53.3333H719.635C749.292 53.3333 773.333 77.3309 773.333 107.032V746.301C773.333 775.958 749.336 800 719.635 800H80.3648C50.708 800 26.6665 776.002 26.6665 746.301V107.032ZM79.9998 266.667H720V746.667H79.9998V266.667ZM533.333 613.333V400H493.732L426.666 467.486L452.535 494.673L487.984 458.531V613.333H533.333ZM320 613.333C368.669 613.333 400 588.254 400 552.646C400 521.684 373.232 505.274 352.547 503.106C375.057 499.081 396.958 482.051 396.958 456.042C396.958 421.674 367.757 400 320.304 400C284.715 400 259.163 413.933 242.737 432.821L264.335 460.378C278.631 446.444 296.274 439.013 316.046 439.013C337.034 439.013 353.764 447.063 353.764 463.473C353.764 478.645 338.555 485.457 316.046 485.457C308.441 485.457 294.448 485.457 290.798 485.147V524.78C293.84 524.471 307.528 524.161 316.046 524.161C344.335 524.161 356.806 531.592 356.806 548.002C356.806 563.483 343.118 574.32 318.479 574.32C298.707 574.32 276.502 565.651 262.814 550.789L240 580.203C254.905 598.781 282.89 613.333 320 613.333ZM186.667 26.6667C186.667 11.9391 198.082 0 213.583 0H266.417C281.282 0 293.333 12.3698 293.333 26.6667V53.3333H186.667V26.6667ZM506.666 26.6667C506.666 11.9391 518.082 0 533.583 0H586.417C601.282 0 613.333 12.3698 613.333 26.6667V53.3333H506.666V26.6667Z" fill="white"/>
</g>
<defs>
<clipPath id="clip0_1077_4">
<rect width="800" height="800" fill="white"/>
</clipPath>
</defs>
</svg>
