<svg width="800" height="800" viewBox="0 0 800 800" fill="none" xmlns="http://www.w3.org/2000/svg">
<path d="M750 125H522.5C516.762 96.7431 501.432 71.3384 479.106 53.0909C456.781 34.8433 428.834 24.875 400 24.875C371.166 24.875 343.219 34.8433 320.894 53.0909C298.568 71.3384 283.238 96.7431 277.5 125H50C43.3696 125 37.0107 127.634 32.3223 132.323C27.6339 137.011 25 143.37 25 150C25 156.631 27.6339 162.99 32.3223 167.678C37.0107 172.366 43.3696 175 50 175H750C756.63 175 762.989 172.366 767.678 167.678C772.366 162.99 775 156.631 775 150C775 143.37 772.366 137.011 767.678 132.323C762.989 127.634 756.63 125 750 125ZM400 75.0003C415.474 75.0438 430.555 79.8723 443.177 88.8238C455.798 97.7753 465.342 110.412 470.5 125H329.5C334.658 110.412 344.202 97.7753 356.823 88.8238C369.445 79.8723 384.526 75.0438 400 75.0003ZM659.5 227C654.947 225.086 649.929 224.563 645.08 225.497C640.23 226.431 635.766 228.781 632.25 232.25C629.933 234.586 628.1 237.357 626.856 240.403C625.612 243.449 624.981 246.71 625 250C625 256.631 627.634 262.99 632.322 267.678C637.011 272.366 643.37 275 650 275C656.63 275 662.989 272.366 667.678 267.678C672.366 262.99 675 256.631 675 250C674.908 243.381 672.318 237.041 667.75 232.25C665.372 229.974 662.569 228.19 659.5 227ZM650 325C643.37 325 637.011 327.634 632.322 332.323C627.634 337.011 625 343.37 625 350V425C625 431.631 627.634 437.99 632.322 442.678C637.011 447.366 643.37 450 650 450C656.63 450 662.989 447.366 667.678 442.678C672.366 437.99 675 431.631 675 425V350C675 343.37 672.366 337.011 667.678 332.323C662.989 327.634 656.63 325 650 325ZM650 500C643.37 500 637.011 502.634 632.322 507.323C627.634 512.011 625 518.37 625 525V700C625 706.631 622.366 712.99 617.678 717.678C612.989 722.366 606.63 725 600 725H200C193.37 725 187.011 722.366 182.322 717.678C177.634 712.99 175 706.631 175 700V250C175 243.37 172.366 237.011 167.678 232.323C162.989 227.634 156.63 225 150 225C143.37 225 137.011 227.634 132.322 232.323C127.634 237.011 125 243.37 125 250V700C125 719.892 132.902 738.968 146.967 753.033C161.032 767.099 180.109 775 200 775H600C619.891 775 638.968 767.099 653.033 753.033C667.098 738.968 675 719.892 675 700V525C675 518.37 672.366 512.011 667.678 507.323C662.989 502.634 656.63 500 650 500Z" fill="white"/>
<path d="M300 600V275C300 268.37 297.366 262.011 292.678 257.322C287.989 252.634 281.63 250 275 250C268.37 250 262.011 252.634 257.322 257.322C252.634 262.011 250 268.37 250 275V600C250 606.63 252.634 612.989 257.322 617.678C262.011 622.366 268.37 625 275 625C281.63 625 287.989 622.366 292.678 617.678C297.366 612.989 300 606.63 300 600ZM425 600V275C425 268.37 422.366 262.011 417.678 257.322C412.989 252.634 406.63 250 400 250C393.37 250 387.011 252.634 382.322 257.322C377.634 262.011 375 268.37 375 275V600C375 606.63 377.634 612.989 382.322 617.678C387.011 622.366 393.37 625 400 625C406.63 625 412.989 622.366 417.678 617.678C422.366 612.989 425 606.63 425 600ZM550 600V275C550 268.37 547.366 262.011 542.678 257.322C537.989 252.634 531.63 250 525 250C518.37 250 512.011 252.634 507.322 257.322C502.634 262.011 500 268.37 500 275V600C500 606.63 502.634 612.989 507.322 617.678C512.011 622.366 518.37 625 525 625C531.63 625 537.989 622.366 542.678 617.678C547.366 612.989 550 606.63 550 600Z" fill="white"/>
</svg>
