<svg width="800" height="800" viewBox="0 0 800 800" fill="none" xmlns="http://www.w3.org/2000/svg">
<path d="M709.33 213.335L391.33 531.333C359.663 563 265.662 577.666 244.662 556.666C223.662 535.666 237.996 441.666 269.662 410L587.997 91.667C595.847 83.1024 605.35 76.2177 615.937 71.4277C626.52 66.6377 637.967 64.041 649.583 63.7964C661.197 63.552 672.743 65.6634 683.52 70.0037C694.297 74.344 704.083 80.824 712.287 89.0507C720.49 97.2774 726.943 107.081 731.253 117.869C735.563 128.658 737.647 140.208 737.37 151.823C737.093 163.438 734.463 174.878 729.647 185.45C724.827 196.021 717.917 205.508 709.33 213.335Z" stroke="white" stroke-width="50" stroke-linecap="round" stroke-linejoin="round"/>
<path d="M366.667 133.334H200C164.638 133.334 130.726 147.381 105.721 172.386C80.7163 197.391 66.6667 231.305 66.6667 266.667V600.001C66.6667 635.364 80.7163 669.277 105.721 694.281C130.726 719.287 164.638 733.334 200 733.334H566.667C640.333 733.334 666.667 673.334 666.667 600.001V433.334" stroke="white" stroke-width="50" stroke-linecap="round" stroke-linejoin="round"/>
</svg>
