<svg width="19" height="19" viewBox="0 0 19 19" fill="none" xmlns="http://www.w3.org/2000/svg">
<g clip-path="url(#clip0_1009_215)">
<path d="M18.6969 5.45091C18.918 5.18995 19.0262 4.84993 18.9947 4.50872C18.962 4.16752 18.7938 3.85365 18.528 3.63728L16.2626 1.80403C15.7158 1.36177 14.9133 1.44618 14.471 1.99247L7.53451 10.5649L4.24371 7.79061C3.61717 7.26216 2.69223 7.30199 2.11265 7.88037L0.372733 9.6197C0.122475 9.86996 -0.0118679 10.2135 0.000615278 10.5672C0.0136929 10.9215 0.173597 11.252 0.441688 11.4839L7.0447 17.1696C7.30149 17.3914 7.63557 17.5013 7.97321 17.4746C8.31085 17.4484 8.62471 17.2891 8.84406 17.0305L18.6969 5.45091Z" fill="#A9DB8A"/>
</g>
<defs>
<clipPath id="clip0_1009_215">
<rect width="19" height="19" fill="white"/>
</clipPath>
</defs>
</svg>
