<svg width="800" height="800" viewBox="0 0 800 800" fill="none" xmlns="http://www.w3.org/2000/svg">
<g clip-path="url(#clip0_1114_2)">
<mask id="mask0_1114_2" style="mask-type:luminance" maskUnits="userSpaceOnUse" x="0" y="0" width="800" height="800">
<path d="M800 0H0V800H800V0Z" fill="white"/>
</mask>
<g mask="url(#mask0_1114_2)">
<path d="M300 700H133.333C114.924 700 100 685.076 100 666.666V413.806C100 404.966 103.512 396.486 109.763 390.236L376.43 123.57C389.447 110.552 410.553 110.552 423.57 123.57L690.237 390.236C696.487 396.486 700 404.966 700 413.806V666.666C700 685.076 685.077 700 666.667 700H500M300 700H500M300 700V500C300 481.59 314.924 466.666 333.333 466.666H466.667C485.077 466.666 500 481.59 500 500V700" stroke="white" stroke-width="33.3333" stroke-linejoin="round"/>
</g>
</g>
<defs>
<clipPath id="clip0_1114_2">
<rect width="800" height="800" fill="white"/>
</clipPath>
</defs>
</svg>
