<svg width="23" height="23" viewBox="0 0 23 23" fill="none" xmlns="http://www.w3.org/2000/svg">
<path d="M8.78297 16.9146C8.55321 17.1291 8.37539 17.2726 8.19367 17.3776C7.30413 17.8911 6.20819 17.8911 5.31867 17.3776C4.99087 17.1883 4.67578 16.8732 4.04559 16.2431C3.4154 15.6129 3.1003 15.2978 2.91106 14.97C2.39749 14.0804 2.39749 12.9845 2.91106 12.095C3.1003 11.7672 3.4154 11.4521 4.04559 10.8219L6.75617 8.11133C7.38636 7.48114 7.70145 7.16604 8.02924 6.9768C8.91877 6.46323 10.0147 6.46323 10.9043 6.97679C11.232 7.16604 11.5471 7.48114 12.1773 8.11133C12.8075 8.74152 13.1226 9.05661 13.3119 9.3844C13.8254 10.2739 13.8254 11.3699 13.3119 12.2594C13.2069 12.4411 13.0634 12.619 12.8488 12.8487M10.1505 10.1504C9.93596 10.3801 9.7924 10.558 9.68746 10.7397C9.17393 11.6292 9.17393 12.7252 9.68746 13.6147C9.87673 13.9425 10.1918 14.2576 10.822 14.8877C11.4522 15.5179 11.7673 15.833 12.0951 16.0223C12.9846 16.5359 14.0806 16.5359 14.9701 16.0223C15.2979 15.833 15.613 15.5179 16.2432 14.8877L18.9538 12.1772C19.584 11.547 19.8991 11.2319 20.0883 10.9041C20.6018 10.0146 20.6018 8.91864 20.0883 8.02912C19.8991 7.70133 19.584 7.38623 18.9538 6.75604C18.3236 6.12585 18.0085 5.81076 17.6807 5.62151C16.7911 5.10794 15.6953 5.10794 14.8057 5.62151C14.6239 5.72642 14.4462 5.87001 14.2164 6.08452" stroke="white" stroke-width="2" stroke-linecap="round"/>
</svg>
