<svg width="800" height="800" viewBox="0 0 800 800" fill="none" xmlns="http://www.w3.org/2000/svg">
<g clip-path="url(#clip0_1100_6)">
<path d="M9.61796 158.417H131.695C137.006 158.417 141.313 154.111 141.313 148.8V111.938C141.313 106.627 137.006 102.32 131.695 102.32H9.61796C4.30694 102.32 0 106.627 0 111.938V148.802C0 154.113 4.30694 158.417 9.61796 158.417Z" fill="white"/>
<path d="M794.552 257.276C791.154 255.056 786.865 254.7 783.146 256.333L584.651 343.495V267.34C584.651 263.281 582.602 259.495 579.203 257.276C575.804 255.056 571.515 254.7 567.798 256.333L369.305 343.497V267.34C369.305 263.281 367.254 259.495 363.856 257.276C360.456 255.054 356.168 254.702 352.451 256.333L141.313 349.046V202.091C141.313 196.782 137.006 192.475 131.695 192.475H9.61796C4.30694 192.475 0 196.782 0 202.091V674.88C0 687.474 10.209 697.681 22.8 697.681H787.98C794.619 697.681 800 692.3 800 685.662V267.34C800 263.281 797.951 259.495 794.552 257.276ZM288.108 552.026C288.108 558.248 283.063 563.293 276.839 563.293H222.377C216.153 563.293 211.11 558.246 211.11 552.026V461.879C211.11 455.655 216.155 450.612 222.377 450.612H276.839C283.064 450.612 288.108 455.657 288.108 461.879V552.026ZM503.455 552.026C503.455 558.248 498.41 563.293 492.188 563.293H437.726C431.504 563.293 426.457 558.246 426.457 552.026V461.879C426.457 455.655 431.504 450.612 437.726 450.612H492.188C498.41 450.612 503.455 455.657 503.455 461.879V552.026ZM718.805 552.026C718.805 558.248 713.762 563.293 707.54 563.293H653.076C646.854 563.293 641.809 558.246 641.809 552.026V461.879C641.809 455.655 646.856 450.612 653.076 450.612H707.54C713.762 450.612 718.805 455.657 718.805 461.879V552.026Z" fill="white"/>
</g>
<defs>
<clipPath id="clip0_1100_6">
<rect width="800" height="800" fill="white"/>
</clipPath>
</defs>
</svg>
