<svg width="18" height="18" viewBox="0 0 18 18" fill="none" xmlns="http://www.w3.org/2000/svg">
<path d="M2.81122 12.1186H5.10892L4.42338 15.5237C4.40831 15.599 4.40078 15.6894 4.40078 15.7648C4.40078 16.1339 4.65693 16.3373 5.01098 16.3373C5.37259 16.3373 5.63626 16.1414 5.7116 15.7723L6.44989 12.1186H10.0132L9.32767 15.5237C9.30508 15.599 9.29756 15.6894 9.29756 15.7648C9.29756 16.1339 9.5537 16.3373 9.91528 16.3373C10.2769 16.3373 10.5406 16.1414 10.6159 15.7723L11.3467 12.1186H14.0361C14.4504 12.1186 14.7367 11.8172 14.7367 11.4104C14.7367 11.0789 14.5107 10.8077 14.1717 10.8077H11.6179L12.4164 6.83007H15.0531C15.4675 6.83007 15.7537 6.52873 15.7537 6.1219C15.7537 5.79044 15.5277 5.51925 15.1887 5.51925H12.6801L13.2978 2.48323C13.3054 2.43804 13.3204 2.3401 13.3204 2.24219C13.3204 1.87303 13.0568 1.66211 12.6952 1.66211C12.2733 1.66211 12.0849 1.89563 12.0096 2.24971L11.3467 5.51925H7.7833L8.40106 2.48323C8.40861 2.43804 8.42366 2.3401 8.42366 2.24219C8.42366 1.87303 8.15247 1.66211 7.79838 1.66211C7.36898 1.66211 7.1731 1.89563 7.10532 2.24971L6.44234 5.51925H3.97139C3.55703 5.51925 3.27077 5.83567 3.27077 6.24999C3.27077 6.589 3.49677 6.83007 3.83578 6.83007H6.1787L5.38014 10.8077H2.94683C2.53248 10.8077 2.24622 11.1242 2.24622 11.5385C2.24622 11.8775 2.47221 12.1186 2.81122 12.1186ZM6.71356 10.8077L7.51964 6.83007H11.083L10.2769 10.8077H6.71356Z" fill="white"/>
</svg>
