<svg width="21" height="21" viewBox="0 0 21 21" fill="none" xmlns="http://www.w3.org/2000/svg">
<path fill-rule="evenodd" clip-rule="evenodd" d="M11.9582 6.12036C11.6717 6.31898 11.3486 6.45855 11.0076 6.53093C10.6666 6.60331 10.3146 6.60705 9.97219 6.54194C9.62975 6.47683 9.3037 6.34416 9.01308 6.15169C8.72246 5.95921 8.47308 5.71078 8.27951 5.4209C8.08593 5.13101 7.95202 4.80547 7.88561 4.46327C7.8192 4.12108 7.8216 3.76909 7.89269 3.42783C7.96377 3.08658 8.10211 2.7629 8.29964 2.47569C8.49716 2.18847 8.74991 1.94347 9.04313 1.75499C9.62205 1.3726 10.3288 1.23496 11.0089 1.37215C11.689 1.50934 12.2872 1.91021 12.6726 2.48712C13.058 3.06402 13.1994 3.77006 13.0657 4.45088C12.9321 5.1317 12.5344 5.73193 11.9595 6.12036H11.9582ZM11.2298 2.84699C11.0868 2.74416 10.9247 2.67115 10.7529 2.63229C10.5812 2.59343 10.4034 2.58953 10.2301 2.62081C10.0568 2.6521 9.89161 2.71793 9.7443 2.81438C9.59699 2.91084 9.47059 3.03595 9.37263 3.18227C9.27468 3.32859 9.20716 3.49312 9.17411 3.66607C9.14106 3.83902 9.14315 4.01685 9.18025 4.18898C9.21735 4.36111 9.2887 4.52401 9.39007 4.66799C9.49143 4.81197 9.62072 4.93408 9.77026 5.02705C10.0592 5.20255 10.4046 5.25982 10.7347 5.18693C11.0648 5.11404 11.354 4.91661 11.5421 4.63577C11.7303 4.35493 11.8028 4.01234 11.7446 3.67936C11.6864 3.34638 11.502 3.04869 11.2298 2.8483V2.84699ZM14.6554 2.88636C15.0339 2.63174 15.4894 2.51708 15.9434 2.56211C16.3974 2.60715 16.8214 2.80908 17.1426 3.13311C17.3714 3.36378 17.5401 3.64708 17.634 3.95815C17.7278 4.26923 17.7439 4.59857 17.6808 4.91731C17.6177 5.23604 17.4773 5.53442 17.2721 5.78628C17.0668 6.03814 16.8028 6.23578 16.5034 6.36186C16.1437 6.51224 15.7474 6.55185 15.3651 6.47562C14.9828 6.3994 14.6319 6.2108 14.3574 5.93399C14.1512 5.72664 13.9932 5.47624 13.895 5.20074C13.7968 4.92523 13.7607 4.63141 13.7893 4.34032C13.8179 4.04923 13.9105 3.76806 14.0604 3.51693C14.2104 3.2658 14.414 3.05092 14.6567 2.88768L14.6554 2.88636ZM15.2854 4.99949C15.4086 5.12219 15.5755 5.19092 15.7494 5.19055C15.8355 5.19037 15.9208 5.17323 16.0002 5.14011C16.0797 5.10699 16.1519 5.05853 16.2127 4.99752C16.2734 4.9365 16.3216 4.86412 16.3543 4.7845C16.3871 4.70488 16.4039 4.61958 16.4037 4.53347C16.4035 4.44737 16.3864 4.36214 16.3533 4.28266C16.3202 4.20317 16.2717 4.131 16.2107 4.07024C16.0885 3.94734 15.9233 3.87674 15.75 3.87336C15.6634 3.87319 15.5777 3.89017 15.4978 3.92334C15.4178 3.9565 15.3452 4.00518 15.2842 4.06658C15.2232 4.12797 15.1749 4.20085 15.1422 4.281C15.1095 4.36115 15.0931 4.44699 15.0938 4.53355C15.0942 4.70835 15.163 4.87473 15.2854 4.99949ZM4.18688 16.3894H6.56251V17.7084H4.18688C3.77101 17.7047 3.37359 17.5362 3.08176 17.2399C2.7888 16.9425 2.62471 16.5417 2.62501 16.1242V13.7486C2.4483 13.7427 2.27462 13.701 2.11445 13.6262C1.95429 13.5513 1.81096 13.4447 1.69313 13.3129C1.56792 13.186 1.46966 13.0352 1.40425 12.8694C1.33884 12.7036 1.30763 12.5263 1.31251 12.3482V9.4843C1.31644 8.8648 1.56188 8.27286 1.99501 7.83318C2.42682 7.39874 3.01088 7.15068 3.62251 7.14674H6.03751C5.71176 7.53468 5.46638 7.9835 5.31563 8.46711H3.62251C3.35612 8.47475 3.10266 8.58364 2.91376 8.77161C2.7282 8.9624 2.62457 9.21816 2.62501 9.4843V12.4138H3.93751V16.1229C3.93446 16.1587 3.93871 16.1947 3.94999 16.2287C3.96127 16.2628 3.97935 16.2942 4.00313 16.3211C4.05589 16.3619 4.12023 16.3849 4.18688 16.3867V16.3894ZM13.7681 7.83449C13.5534 7.61764 13.2979 7.44536 13.0163 7.32756C12.7348 7.20976 12.4327 7.14875 12.1275 7.14805H8.87251C8.26064 7.15294 7.67556 7.39971 7.24501 7.83449C6.81188 8.27418 6.56644 8.86611 6.56251 9.48561V13.6567C6.56065 14.0149 6.69698 14.36 6.94313 14.6201C7.06111 14.7518 7.20447 14.8582 7.3646 14.9331C7.52473 15.008 7.69834 15.0497 7.87501 15.0559V18.1048C7.87378 18.3129 7.91373 18.5192 7.99257 18.7118C8.07141 18.9044 8.18758 19.0795 8.33438 19.227C8.57063 19.4475 8.86857 19.5905 9.18751 19.6365H11.8125C12.1817 19.588 12.5199 19.4048 12.7622 19.1221C13.0045 18.8393 13.1337 18.477 13.125 18.1048V15.0545C13.3017 15.0486 13.4754 15.007 13.6356 14.9321C13.7957 14.8572 13.939 14.7506 14.0569 14.6188C14.182 14.4922 14.2802 14.3416 14.3456 14.176C14.411 14.0104 14.4423 13.8334 14.4375 13.6554V9.4843C14.4384 8.86766 14.1982 8.27641 13.7681 7.83449ZM13.125 13.7211H11.8125V18.1048C11.8112 18.174 11.783 18.2399 11.7338 18.2885C11.7114 18.3151 11.6831 18.336 11.6512 18.3497C11.6193 18.3633 11.5846 18.3694 11.55 18.3673H9.43688C9.36829 18.3641 9.30336 18.3354 9.25481 18.2869C9.20626 18.2383 9.17758 18.1734 9.17438 18.1048V13.7211H7.87501V9.4843C7.87501 9.21786 7.97869 8.96193 8.16376 8.77161C8.35266 8.58364 8.60612 8.47475 8.87251 8.46711H12.1275C12.3263 8.47062 12.5198 8.5321 12.6842 8.64402C12.8486 8.75593 12.9767 8.91341 13.0528 9.09711C13.1028 9.21997 13.1273 9.35169 13.125 9.4843V13.7211ZM16.8131 17.7071H14.4375V16.388H16.8C16.8667 16.3862 16.931 16.3632 16.9838 16.3224C17.0102 16.2966 17.0309 16.2655 17.0444 16.2311C17.058 16.1967 17.0642 16.1598 17.0625 16.1229V12.4138H18.375V9.4843C18.3754 9.21816 18.2718 8.9624 18.0863 8.77161C17.8973 8.58364 17.6439 8.47475 17.3775 8.46711H15.6844C15.5337 7.98347 15.2883 7.53464 14.9625 7.14674H17.3775C17.9892 7.15234 18.574 7.399 19.005 7.83318C19.4381 8.27286 19.6836 8.8648 19.6875 9.4843V12.3482C19.6875 12.7065 19.5523 13.0504 19.3082 13.3102C19.0641 13.5714 18.7307 13.7276 18.375 13.7473V16.1229C18.375 16.5416 18.2109 16.9419 17.9183 17.2385C17.6264 17.5349 17.229 17.7034 16.8131 17.7071ZM5.25001 2.55299C4.85944 2.55254 4.47764 2.66872 4.15354 2.88666C3.82944 3.1046 3.5778 3.41436 3.43088 3.77624C3.28261 4.13799 3.24412 4.53538 3.32021 4.91887C3.3963 5.30235 3.5836 5.65494 3.85876 5.93268C4.13381 6.21009 4.48532 6.39921 4.86838 6.47588C5.25144 6.55256 5.64866 6.5133 6.0093 6.36313C6.36994 6.21295 6.67763 5.95868 6.89306 5.6328C7.10849 5.30691 7.22189 4.9242 7.21876 4.53355C7.21876 4.00855 7.01138 3.50455 6.64126 3.13311C6.459 2.94954 6.24227 2.80378 6.00352 2.70423C5.76476 2.60467 5.50869 2.55327 5.25001 2.55299ZM5.25001 5.19374C5.16344 5.19391 5.07771 5.17693 4.99775 5.14377C4.91779 5.1106 4.8452 5.06192 4.78418 5.00053C4.72315 4.93913 4.6749 4.86625 4.64222 4.7861C4.60953 4.70595 4.59306 4.62011 4.59376 4.53355C4.5941 4.35924 4.66322 4.19211 4.78611 4.06849C4.90899 3.94487 5.0757 3.87475 5.25001 3.87336C5.42378 3.87642 5.58952 3.94708 5.71204 4.07035C5.83457 4.19361 5.90423 4.35976 5.90626 4.53355C5.90592 4.70786 5.83679 4.87499 5.71391 4.99861C5.59102 5.12223 5.42431 5.19236 5.25001 5.19374Z" fill="white"/>
</svg>
