<svg width="18" height="18" viewBox="0 0 18 18" fill="none" xmlns="http://www.w3.org/2000/svg">
<g clip-path="url(#clip0_1009_185)">
<path d="M0.270258 2H-0.79512C-0.908296 2 -1 2.09175 -1 2.20488V15.0187C-1 15.1319 -0.908296 15.2236 -0.79512 15.2236H0.270258C0.383434 15.2236 0.475138 15.1319 0.475138 15.0187V2.20488C0.475138 2.0917 0.383434 2 0.270258 2Z" fill="white"/>
<path d="M2.15506 2H1.25359C1.14041 2 1.04871 2.09175 1.04871 2.20488V15.0187C1.04871 15.1319 1.14041 15.2236 1.25359 15.2236H2.15506C2.26824 15.2236 2.35994 15.1319 2.35994 15.0187V2.20488C2.35994 2.0917 2.26824 2 2.15506 2Z" fill="white"/>
<path d="M3.67124 2H3.22051C3.10733 2 3.01562 2.09175 3.01562 2.20488V15.0187C3.01562 15.1319 3.10733 15.2236 3.22051 15.2236H3.67124C3.78442 15.2236 3.87612 15.1319 3.87612 15.0187V2.20488C3.87612 2.0917 3.78442 2 3.67124 2Z" fill="white"/>
<path d="M5.0568 2H4.53948C4.4263 2 4.33459 2.09175 4.33459 2.20488V15.0187C4.33459 15.1319 4.4263 15.2236 4.53948 15.2236H5.0568C5.16997 15.2236 5.26168 15.1319 5.26168 15.0187V2.20488C5.26168 2.0917 5.16997 2 5.0568 2Z" fill="white"/>
<path d="M7.18746 2H6.34233C6.22916 2 6.13745 2.09175 6.13745 2.20488V15.0187C6.13745 15.1319 6.22916 15.2236 6.34233 15.2236H7.18746C7.30064 15.2236 7.39234 15.1319 7.39234 15.0187V2.20488C7.39234 2.0917 7.30064 2 7.18746 2Z" fill="white"/>
<path d="M8.5679 2H8.14531C8.03213 2 7.94043 2.09175 7.94043 2.20488V15.0187C7.94043 15.1319 8.03213 15.2236 8.14531 15.2236H8.5679C8.68111 15.2236 8.77278 15.1319 8.77278 15.0187V2.20488C8.77278 2.0917 8.68111 2 8.5679 2Z" fill="white"/>
<path d="M10.0357 2H9.51091C9.39769 2 9.30603 2.09175 9.30603 2.20488V15.0187C9.30603 15.1319 9.39769 15.2236 9.51091 15.2236H10.0357C10.1489 15.2236 10.2406 15.1319 10.2406 15.0187V2.20488C10.2406 2.0917 10.1489 2 10.0357 2Z" fill="white"/>
<path d="M12.1738 2H11.7511C11.638 2 11.5463 2.09175 11.5463 2.20488V15.0187C11.5463 15.1319 11.638 15.2236 11.7511 15.2236H12.1738C12.2869 15.2236 12.3787 15.1319 12.3787 15.0187V2.20488C12.3787 2.0917 12.2869 2 12.1738 2Z" fill="white"/>
<path d="M14.4479 2H13.5685C13.4553 2 13.3636 2.09175 13.3636 2.20488V15.0187C13.3636 15.1319 13.4553 15.2236 13.5685 15.2236H14.4479C14.5611 15.2236 14.6528 15.1319 14.6528 15.0187V2.20488C14.6528 2.0917 14.5611 2 14.4479 2Z" fill="white"/>
<path d="M16.7951 2H15.5354C15.4223 2 15.3306 2.09175 15.3306 2.20488V15.0187C15.3306 15.1319 15.4223 15.2236 15.5354 15.2236H16.7951C16.9084 15.2236 17 15.1319 17 15.0187V2.20488C17 2.0917 16.9083 2 16.7951 2Z" fill="white"/>
</g>
<defs>
<clipPath id="clip0_1009_185">
<rect width="18" height="18" fill="white"/>
</clipPath>
</defs>
</svg>
