<svg width="800" height="800" viewBox="0 0 800 800" fill="none" xmlns="http://www.w3.org/2000/svg">
<path d="M383.343 399.999H180.624M174.878 426.573L141.386 526.619C123.043 581.413 113.871 608.809 120.453 625.679C126.169 640.333 138.445 651.439 153.593 655.669C171.037 660.536 197.384 648.679 250.077 624.969L587.89 472.953C639.323 449.806 665.04 438.236 672.987 422.159C679.893 408.193 679.893 391.803 672.987 377.836C665.04 361.763 639.323 350.189 587.89 327.044L249.494 174.767C196.96 151.127 170.693 139.306 153.266 144.155C138.132 148.366 125.857 159.445 120.122 174.069C113.517 190.909 122.591 218.246 140.738 272.922L174.943 375.976C178.06 385.366 179.618 390.063 180.233 394.863C180.779 399.126 180.774 403.439 180.217 407.699C179.589 412.499 178.019 417.189 174.878 426.573Z" stroke="white" stroke-width="66.6667" stroke-linecap="round" stroke-linejoin="round"/>
</svg>
