<svg width="22" height="22" viewBox="0 0 22 22" fill="none" xmlns="http://www.w3.org/2000/svg">
<path d="M11 3.66699V5.50033M11 5.50033C12.8333 5.50033 13.9027 6.11144 14.2083 7.33366M11 5.50033C8.24996 5.50033 7.79163 7.2938 7.79163 8.25033C7.79163 12.0456 14.2083 10.0515 14.2083 13.7503C14.2083 14.7068 13.75 16.5003 11 16.5003M11 16.5003V18.3337M11 16.5003C9.16663 16.5003 8.09718 15.8892 7.79163 14.667" stroke="white" stroke-width="2" stroke-linecap="square"/>
<path d="M11 3.66699V5.50033M11 5.50033C12.8333 5.50033 13.9027 6.11144 14.2083 7.33366M11 5.50033C8.24996 5.50033 7.79163 7.2938 7.79163 8.25033C7.79163 12.0456 14.2083 10.0515 14.2083 13.7503C14.2083 14.7068 13.75 16.5003 11 16.5003M11 16.5003V18.3337M11 16.5003C9.16663 16.5003 8.09718 15.8892 7.79163 14.667" stroke="white" stroke-width="2" stroke-linecap="square"/>
</svg>
