<svg width="800" height="800" viewBox="0 0 800 800" fill="none" xmlns="http://www.w3.org/2000/svg">
<path fill-rule="evenodd" clip-rule="evenodd" d="M400 91.666C229.712 91.666 91.6667 229.712 91.6667 399.999C91.6667 570.286 229.712 708.333 400 708.333C570.287 708.333 708.333 570.286 708.333 399.999C708.333 229.712 570.287 91.666 400 91.666ZM41.6667 399.999C41.6667 202.097 202.098 41.666 400 41.666C597.903 41.666 758.333 202.097 758.333 399.999C758.333 597.903 597.903 758.333 400 758.333C202.098 758.333 41.6667 597.903 41.6667 399.999ZM226.772 374.999H311.784C315.977 360.173 323.809 346.873 334.253 336.126L291.742 262.494C257.28 289.663 233.279 329.51 226.772 374.999ZM335.023 237.459L377.54 311.104C384.727 309.294 392.253 308.333 400 308.333C407.747 308.333 415.27 309.294 422.457 311.103L464.977 237.459C444.887 229.421 422.96 224.999 400 224.999C377.04 224.999 355.113 229.421 335.023 237.459ZM508.257 262.493L465.747 336.123C476.19 346.873 484.023 360.173 488.217 374.999H573.227C566.72 329.509 542.72 289.662 508.257 262.493ZM573.227 424.999H488.217C484.023 439.829 476.19 453.129 465.743 463.876L508.257 537.506C542.72 510.339 566.72 470.489 573.227 424.999ZM464.973 562.539L422.453 488.896C415.27 490.706 407.747 491.666 400 491.666C392.253 491.666 384.73 490.706 377.543 488.896L335.023 562.539C355.113 570.579 377.04 574.999 400 574.999C422.96 574.999 444.883 570.579 464.973 562.539ZM291.743 537.506L334.253 463.876C323.809 453.126 315.978 439.826 311.784 424.999H226.772C233.279 470.489 257.281 510.336 291.743 537.506ZM379.53 436.299C379.41 436.229 379.29 436.156 379.167 436.086C379.05 436.019 378.933 435.953 378.817 435.886C366.557 428.633 358.333 415.276 358.333 399.999C358.333 384.779 366.497 371.463 378.683 364.193C378.843 364.103 379.007 364.013 379.167 363.919C379.337 363.819 379.503 363.719 379.673 363.619C385.683 360.253 392.617 358.333 400 358.333C407.347 358.333 414.25 360.236 420.243 363.573C420.437 363.689 420.633 363.806 420.83 363.923C421.02 364.029 421.207 364.136 421.4 364.239C433.54 371.523 441.667 384.813 441.667 399.999C441.667 415.316 433.403 428.703 421.09 435.943C421.003 435.989 420.92 436.039 420.833 436.089C420.74 436.143 420.647 436.196 420.553 436.253C414.49 439.699 407.473 441.666 400 441.666C392.56 441.666 385.577 439.716 379.53 436.299ZM175 399.999C175 275.735 275.736 174.999 400 174.999C524.263 174.999 625 275.735 625 399.999C625 524.263 524.263 624.999 400 624.999C275.736 624.999 175 524.263 175 399.999Z" fill="white"/>
</svg>
