<svg width="800" height="800" viewBox="0 0 800 800" fill="none" xmlns="http://www.w3.org/2000/svg">
<path fill-rule="evenodd" clip-rule="evenodd" d="M66.6667 493.434V708.334C66.6667 722.134 77.8667 733.334 91.6667 733.334H145.467C151.387 733.335 157.116 731.235 161.633 727.408C166.15 723.581 169.162 718.274 170.133 712.434L183.333 633.334H616.667L629.833 712.434C630.804 718.274 633.816 723.581 638.334 727.408C642.851 731.235 648.579 733.335 654.5 733.334H708.333C714.964 733.334 721.323 730.7 726.011 726.012C730.699 721.323 733.333 714.964 733.333 708.334V493.434C733.335 454.248 721.737 415.938 700 383.334L674 344.334C671.681 340.862 669.695 337.179 668.067 333.334H701.2C705.845 333.334 710.399 332.039 714.349 329.596C718.3 327.153 721.492 323.657 723.567 319.501L731.9 302.834C733.802 299.025 734.699 294.794 734.507 290.541C734.315 286.288 733.041 282.154 730.804 278.532C728.567 274.91 725.442 271.919 721.726 269.842C718.009 267.766 713.824 266.673 709.567 266.667H653.333L643 215.134C639.856 199.439 632.259 184.982 621.116 173.49C609.974 161.999 595.757 153.96 580.167 150.334C531.433 139.001 471.367 133.334 400 133.334C328.6 133.334 268.567 139.001 219.833 150.334C204.237 153.954 190.013 161.991 178.864 173.483C167.715 184.975 160.113 199.435 156.967 215.134L146.633 266.667H90.4667C86.2095 266.673 82.0242 267.766 78.3077 269.842C74.5912 271.919 71.4664 274.91 69.2296 278.532C66.9928 282.154 65.7181 286.288 65.5263 290.541C65.3344 294.794 66.2318 299.025 68.1334 302.834L76.4667 319.501C78.539 323.652 81.7256 327.144 85.6699 329.587C89.6141 332.03 94.1604 333.328 98.8 333.334H131.967C130.338 337.178 128.351 340.861 126.033 344.334L100 383.334C78.2667 415.934 66.6667 454.234 66.6667 493.434ZM598.7 333.467C600.996 344.996 604.807 356.171 610.033 366.701H189.967C195.2 356.201 199 345.034 201.3 333.467L222.367 228.234C222.989 225.088 224.505 222.188 226.734 219.882C228.963 217.576 231.81 215.962 234.933 215.234C278.2 205.234 333.333 200.001 400 200.001C466.667 200.001 521.8 205.201 565.067 215.267C568.192 215.987 571.043 217.594 573.278 219.894C575.513 222.194 577.037 225.09 577.667 228.234L598.7 333.467ZM183.333 533.334C196.594 533.334 209.312 528.066 218.689 518.689C228.066 509.312 233.333 496.595 233.333 483.334C233.333 470.073 228.066 457.355 218.689 447.979C209.312 438.602 196.594 433.334 183.333 433.334C170.073 433.334 157.355 438.602 147.978 447.979C138.601 457.355 133.333 470.073 133.333 483.334C133.333 496.595 138.601 509.312 147.978 518.689C157.355 528.066 170.073 533.334 183.333 533.334ZM666.667 483.334C666.667 496.595 661.399 509.312 652.022 518.689C642.645 528.066 629.927 533.334 616.667 533.334C603.406 533.334 590.688 528.066 581.311 518.689C571.935 509.312 566.667 496.595 566.667 483.334C566.667 470.073 571.935 457.355 581.311 447.979C590.688 438.602 603.406 433.334 616.667 433.334C629.927 433.334 642.645 438.602 652.022 447.979C661.399 457.355 666.667 470.073 666.667 483.334Z" fill="white"/>
</svg>
