<svg width="800" height="800" viewBox="0 0 800 800" fill="none" xmlns="http://www.w3.org/2000/svg">
<g clip-path="url(#clip0_1093_64)">
<path d="M599.999 233.332C618.399 233.332 633.332 218.399 633.332 199.999C633.332 181.599 618.399 166.666 599.999 166.666C581.599 166.666 566.666 181.599 566.666 199.999C566.666 218.399 581.599 233.332 599.999 233.332Z" fill="white"/>
<path d="M166.669 566.662C185.068 566.662 200.002 551.729 200.002 533.329C200.002 514.929 185.068 499.996 166.669 499.996C148.269 499.996 133.335 514.929 133.335 533.329C133.335 551.729 148.269 566.662 166.669 566.662Z" fill="white"/>
<path d="M599.998 0C535.956 0 478.94 30.1186 442.334 76.9558L59.7295 405.506C58.6813 406.383 57.6445 407.274 56.6192 408.177L56.3425 408.415C56.2985 408.452 56.2611 408.496 56.2172 408.533C21.7432 439.069 0.00341797 483.658 0.00341797 533.329C0.00341797 624.192 72.7307 698.074 163.145 699.95L618.662 791.053C633.561 796.807 649.736 799.993 666.665 799.993C666.676 799.993 666.686 799.993 666.697 799.993C666.871 799.993 667.042 799.984 667.215 799.98C740.603 799.683 799.997 740.119 799.997 666.663V199.998C799.997 89.5566 710.44 0 599.998 0ZM599.998 66.6661C673.621 66.6661 733.331 126.374 733.331 199.998C733.331 273.622 673.621 333.331 599.998 333.331C526.376 333.331 466.666 273.622 466.666 199.998C466.666 126.374 526.374 66.6661 599.998 66.6661ZM539.649 707.265L280.157 655.366C312.865 624.935 333.334 581.524 333.334 533.329C333.334 453.668 277.433 387.067 202.725 370.588L400.015 201.17C400.646 311.072 489.947 399.998 599.998 399.998C651.222 399.998 697.944 380.724 733.331 349.047V551.211C713.715 539.86 690.96 533.332 666.665 533.332C593.023 533.332 533.332 593.022 533.332 666.664C533.332 680.823 535.559 694.459 539.649 707.265ZM66.6695 533.329C66.6695 502.478 80.6522 474.898 102.615 456.554L103.108 456.129C120.388 441.886 142.53 433.328 166.669 433.328C221.893 433.328 266.668 478.103 266.668 533.327C266.668 588.551 221.893 633.327 166.669 633.327C166.631 633.327 166.594 633.323 166.555 633.323C166.526 633.323 166.496 633.322 166.467 633.322C111.337 633.214 66.6695 588.485 66.6695 533.329ZM669.594 733.252L638.284 726.991C615.659 716.332 599.998 693.333 599.998 666.661C599.998 629.837 629.84 599.995 666.665 599.995C703.489 599.995 733.331 629.837 733.331 666.661C733.331 702.502 705.058 731.719 669.594 733.252Z" fill="white"/>
</g>
<defs>
<clipPath id="clip0_1093_64">
<rect width="800" height="800" fill="white"/>
</clipPath>
</defs>
</svg>
