<svg width="800" height="800" viewBox="0 0 800 800" fill="none" xmlns="http://www.w3.org/2000/svg">
<g clip-path="url(#clip0_1153_17)">
<path d="M400 66.666C334.073 66.666 269.626 86.2157 214.81 122.843C159.994 159.47 117.269 211.529 92.0401 272.438C66.8109 333.347 60.2098 400.369 73.0716 465.029C85.9333 529.69 117.68 589.084 164.298 635.702C210.915 682.319 270.31 714.066 334.97 726.928C399.63 739.79 466.652 733.188 527.561 707.959C588.47 682.73 640.529 640.006 677.156 585.189C713.784 530.373 733.333 465.926 733.333 399.999C733.333 356.225 724.711 312.88 707.96 272.438C691.208 231.996 666.655 195.25 635.702 164.297C604.749 133.344 568.003 108.791 527.561 92.0395C487.119 75.2879 443.774 66.666 400 66.666ZM589 587.999C595.952 580.99 600.673 572.081 602.569 562.393C604.465 552.705 603.451 542.673 599.655 533.56C595.858 524.448 589.449 516.663 581.236 511.187C573.022 505.711 563.372 502.789 553.5 502.789C543.628 502.789 533.978 505.711 525.764 511.187C517.551 516.663 511.142 524.448 507.345 533.56C503.549 542.673 502.535 552.705 504.431 562.393C506.327 572.081 511.048 580.99 518 587.999C522.625 592.726 528.148 596.482 534.244 599.046C540.34 601.61 546.887 602.931 553.5 602.931C560.113 602.931 566.66 601.61 572.756 599.046C578.852 596.482 584.375 592.726 589 587.999C539.037 637.666 471.449 665.544 401 665.544C330.55 665.544 262.963 637.666 213 587.999C220.009 594.951 228.919 599.672 238.606 601.568C248.294 603.464 258.326 602.45 267.439 598.654C276.551 594.858 284.336 588.449 289.812 580.235C295.288 572.022 298.21 562.371 298.21 552.499C298.21 542.628 295.288 532.977 289.812 524.763C284.336 516.55 276.551 510.141 267.439 506.345C258.326 502.548 248.294 501.534 238.606 503.43C228.919 505.326 220.009 510.048 213 516.999C208.273 521.624 204.517 527.147 201.953 533.243C199.389 539.339 198.068 545.886 198.068 552.499C198.068 559.113 199.389 565.659 201.953 571.756C204.517 577.852 208.273 583.374 213 587.999C163.333 538.036 135.455 470.449 135.455 399.999C135.455 329.55 163.333 261.963 213 211.999C206.048 219.008 201.327 227.918 199.431 237.606C197.535 247.294 198.549 257.326 202.345 266.438C206.142 275.551 212.551 283.335 220.764 288.811C228.978 294.287 238.628 297.209 248.5 297.209C258.372 297.209 268.022 294.287 276.236 288.811C284.449 283.335 290.858 275.551 294.655 266.438C298.451 257.326 299.465 247.294 297.569 237.606C295.673 227.918 290.952 219.008 284 211.999C279.375 207.272 273.852 203.517 267.756 200.953C261.66 198.389 255.113 197.068 248.5 197.068C241.887 197.068 235.34 198.389 229.244 200.953C223.148 203.517 217.625 207.272 213 211.999C262.963 162.332 330.55 134.455 401 134.455C471.449 134.455 539.037 162.332 589 211.999C581.991 205.048 573.081 200.326 563.394 198.43C553.706 196.534 543.673 197.548 534.561 201.345C525.449 205.141 517.664 211.55 512.188 219.763C506.712 227.977 503.79 237.628 503.79 247.499C503.79 257.371 506.712 267.022 512.188 275.235C517.664 283.449 525.449 289.858 534.561 293.654C543.673 297.45 553.706 298.464 563.394 296.568C573.081 294.672 581.991 289.951 589 282.999C593.727 278.374 597.483 272.852 600.047 266.756C602.611 260.659 603.931 254.113 603.931 247.499C603.931 240.886 602.611 234.339 600.047 228.243C597.483 222.147 593.727 216.624 589 211.999C638.667 261.963 666.545 329.55 666.545 399.999C666.545 470.449 638.667 538.036 589 587.999Z" fill="white"/>
<path d="M400 233.332C367.036 233.332 334.813 243.107 307.405 261.42C279.997 279.734 258.635 305.764 246.02 336.218C233.405 366.672 230.105 400.184 236.536 432.514C242.967 464.844 258.84 494.541 282.149 517.85C305.458 541.159 335.155 557.032 367.485 563.463C399.815 569.894 433.326 566.593 463.781 553.979C494.235 541.364 520.265 520.002 538.578 492.594C556.892 465.186 566.667 432.962 566.667 399.999C566.667 355.796 549.107 313.404 517.851 282.148C486.595 250.892 444.203 233.332 400 233.332ZM400 499.999C380.222 499.999 360.888 494.134 344.443 483.146C327.998 472.158 315.181 456.54 307.612 438.267C300.043 419.994 298.063 399.888 301.921 380.49C305.78 361.092 315.304 343.273 329.289 329.288C343.275 315.303 361.093 305.779 380.491 301.92C399.889 298.062 419.996 300.042 438.268 307.611C456.541 315.179 472.159 327.997 483.147 344.442C494.135 360.887 500 380.221 500 399.999C500 426.52 489.464 451.956 470.711 470.709C451.957 489.463 426.522 499.999 400 499.999Z" fill="white"/>
<path d="M400 233.332C427.614 233.332 450 210.946 450 183.332C450 155.718 427.614 133.332 400 133.332C372.386 133.332 350 155.718 350 183.332C350 210.946 372.386 233.332 400 233.332Z" fill="white"/>
<path d="M400 666.666C427.614 666.666 450 644.28 450 616.666C450 589.052 427.614 566.666 400 566.666C372.386 566.666 350 589.052 350 616.666C350 644.28 372.386 666.666 400 666.666Z" fill="white"/>
<path d="M183.333 450C210.947 450 233.333 427.614 233.333 400C233.333 372.386 210.947 350 183.333 350C155.719 350 133.333 372.386 133.333 400C133.333 427.614 155.719 450 183.333 450Z" fill="white"/>
<path d="M616.667 450C644.281 450 666.667 427.614 666.667 400C666.667 372.386 644.281 350 616.667 350C589.053 350 566.667 372.386 566.667 400C566.667 427.614 589.053 450 616.667 450Z" fill="white"/>
</g>
<defs>
<clipPath id="clip0_1153_17">
<rect width="800" height="800" fill="white"/>
</clipPath>
</defs>
</svg>
