<svg width="800" height="800" viewBox="0 0 800 800" fill="none" xmlns="http://www.w3.org/2000/svg">
<g clip-path="url(#clip0_1093_71)">
<path d="M789.276 800C795.2 800 800 795.2 800 789.276V10.7245C800 4.80028 795.2 0 789.276 0H10.7245C4.80028 0 0 4.80028 0 10.7245V789.276C0 795.2 4.80028 800 10.7245 800H789.276ZM716.199 60.928C728.832 60.928 739.072 71.172 739.072 83.8055C739.072 96.4389 728.832 106.683 716.199 106.683C703.565 106.683 693.317 96.4389 693.317 83.8055C693.317 71.172 703.561 60.928 716.199 60.928ZM400.002 78.2674C577.694 78.2674 721.737 222.31 721.737 400.002C721.737 577.694 577.694 721.737 400.002 721.737C222.31 721.737 78.2674 577.694 78.2674 400.002C78.2674 222.31 222.31 78.2674 400.002 78.2674ZM83.8055 693.317C96.4389 693.317 106.687 703.561 106.687 716.195C106.687 728.828 96.4389 739.072 83.8055 739.072C71.172 739.072 60.9323 728.828 60.9323 716.195C60.9323 703.561 71.1677 693.317 83.8055 693.317ZM202.637 394.177C193.637 399.024 184.607 403.842 175.727 408.633C166.907 413.648 158.246 418.594 149.86 423.399C141.422 428.19 133.258 432.849 125.631 437.632C125.035 437.988 124.473 438.319 123.881 438.696C133.584 508.706 169.263 570.41 220.937 613.724C221.65 612.755 222.4 611.717 223.16 610.687C226.373 606.273 229.98 601.318 233.905 595.896C238.135 590.452 242.665 584.571 247.504 578.333C252.206 572.04 257.581 565.537 263.132 558.81C268.691 552.024 274.414 545.049 280.24 537.928C286.297 530.974 292.491 523.849 298.656 516.74C298.664 516.732 298.707 516.676 298.75 516.655C298.317 523.54 297.888 530.515 297.442 537.623C296.845 547.644 296.682 557.807 296.296 568.033C295.97 578.247 295.644 588.492 295.314 598.538C295.262 608.688 295.22 618.683 295.168 628.348C295.108 638.052 295.065 647.438 295.391 656.433C295.391 657.167 295.438 657.815 295.438 658.501C327.732 671.619 363.02 678.835 399.998 678.835C433.6 678.835 465.778 672.919 495.583 662.032C495.094 660.89 494.592 659.694 494.043 658.497C491.821 653.508 489.311 647.901 486.592 641.771C483.988 635.405 481.148 628.533 478.197 621.261C475.099 613.994 472.148 606.101 469.098 597.959C466.001 589.757 462.801 581.289 459.579 572.692C456.537 563.941 453.487 555.018 450.429 546.138C450.42 546.108 450.42 546.061 450.382 546.005C456.143 549.866 461.968 553.706 467.914 557.661C476.249 563.156 485 568.407 493.661 573.838C502.331 579.221 511.048 584.639 519.597 589.95C528.37 595.046 536.975 600.087 545.353 604.956C553.727 609.825 561.809 614.569 569.758 618.79C570.393 619.146 570.951 619.438 571.547 619.79C624.818 578.132 662.503 517.603 674.631 448.215C673.43 448.082 672.143 447.941 670.881 447.838C665.476 447.246 659.376 446.611 652.688 445.903C645.876 444.981 638.481 443.994 630.69 442.887C622.896 441.986 614.574 440.588 605.964 439.151C597.316 437.714 588.384 436.26 579.337 434.762C570.238 432.991 561.028 431.176 551.771 429.383C551.724 429.383 551.711 429.383 551.659 429.383C557.82 426.294 564.091 423.176 570.5 419.988C579.444 415.544 588.32 410.589 597.371 405.849C606.401 400.98 615.401 396.163 624.307 391.388C633.097 386.378 641.792 381.423 650.179 376.636C658.574 371.818 666.737 367.185 674.373 362.393C674.974 362.037 675.557 361.681 676.115 361.304C666.411 291.32 630.742 229.59 579.067 186.297C578.355 187.254 577.604 188.314 576.875 189.317C573.662 193.74 570.024 198.691 566.09 204.109C561.861 209.552 557.339 215.438 552.534 221.68C547.79 227.964 542.419 234.467 536.868 241.22C531.347 247.985 525.586 254.977 519.769 262.111C513.703 269.06 507.543 276.16 501.344 283.298C501.301 283.298 501.293 283.328 501.284 283.375C501.688 276.486 502.121 269.489 502.593 262.403C503.193 252.382 503.356 242.198 503.738 231.997C504.064 221.778 504.39 211.543 504.682 201.475C504.742 191.312 504.78 181.347 504.828 171.678C504.888 161.961 504.931 152.567 504.613 143.575C504.613 142.842 504.566 142.215 504.557 141.503C472.264 128.389 436.985 121.17 399.998 121.17C366.404 121.17 334.218 127.107 304.413 137.968C304.914 139.114 305.412 140.311 305.991 141.503C308.183 146.497 310.684 152.103 313.408 158.251C316.021 164.595 318.852 171.467 321.842 178.764C324.909 186.027 327.852 193.899 330.941 202.062C334.038 210.29 337.212 218.711 340.464 227.308C343.463 236.08 346.521 244.982 349.58 253.883C349.58 253.917 349.618 253.939 349.627 253.999C343.857 250.16 338.032 246.299 332.095 242.365C323.751 236.844 315.038 231.593 306.339 226.167C297.669 220.8 288.961 215.386 280.411 210.08C271.643 204.967 263.025 199.926 254.66 195.07C246.312 190.175 238.191 185.457 230.251 181.214C229.607 180.866 229.058 180.588 228.453 180.232C175.191 221.873 137.497 282.427 125.408 351.811C126.609 351.926 127.857 352.081 129.119 352.171C134.524 352.763 140.658 353.424 147.355 354.131C154.162 355.028 161.519 356.036 169.318 357.117C177.147 358.044 185.426 359.459 194.045 360.879C202.693 362.303 211.624 363.762 220.676 365.263C229.762 367.031 239.015 368.828 248.229 370.63C248.276 370.63 248.323 370.63 248.341 370.63C242.181 373.706 235.917 376.833 229.538 380.016C220.564 384.482 211.676 389.415 202.637 394.177ZM400.002 327.076C440.279 327.076 472.929 359.725 472.929 400.002C472.929 440.279 440.279 472.929 400.002 472.929C359.725 472.929 327.076 440.279 327.076 400.002C327.076 359.725 359.725 327.076 400.002 327.076Z" fill="white"/>
</g>
<defs>
<clipPath id="clip0_1093_71">
<rect width="800" height="800" fill="white"/>
</clipPath>
</defs>
</svg>
