<svg width="800" height="800" viewBox="0 0 800 800" fill="none" xmlns="http://www.w3.org/2000/svg">
<g clip-path="url(#clip0_1093_52)">
<path d="M433.331 400.002C451.731 400.002 466.664 385.07 466.664 366.67C466.664 348.27 451.731 333.338 433.331 333.338C414.932 333.338 399.999 348.27 399.999 366.67C399.999 385.07 414.932 400.002 433.331 400.002Z" fill="white"/>
<path d="M433.331 466.67C414.932 466.67 399.999 481.602 399.999 500.002C399.999 518.402 414.932 533.334 433.331 533.334C451.731 533.334 466.664 518.402 466.664 500.002C466.664 481.602 451.731 466.67 433.331 466.67Z" fill="white"/>
<path d="M433.331 233.34C322.891 233.34 233.335 322.896 233.335 433.336C233.335 543.777 322.891 633.333 433.331 633.333C543.772 633.333 633.328 543.777 633.328 433.336C633.328 322.896 543.772 233.34 433.331 233.34ZM433.331 566.668C359.709 566.668 300.001 506.96 300.001 433.338C300.001 359.716 359.709 300.007 433.331 300.007C506.954 300.007 566.662 359.716 566.662 433.338C566.662 506.96 506.954 566.668 433.331 566.668Z" fill="white"/>
<path d="M479.804 69.2855V52.6218C479.804 22.3004 454.344 -1.37728 424.31 0.0601925C194.912 11.2662 11.2529 194.936 0.0843325 424.295C-1.44689 454.277 22.2714 479.781 52.61 479.781H69.2722C92.2577 660.828 246.839 799.999 433.124 799.999C635.736 799.999 799.984 635.74 799.984 433.106C799.984 246.818 660.848 92.257 479.804 69.2855ZM413.126 67.6246V134.677C404.99 135.53 396.954 136.706 389.021 138.161C293.834 155.603 214.037 215.619 169.936 297.95C151.241 332.847 138.958 371.749 134.629 413.115H67.6488C83.5594 229.536 229.594 83.5181 413.126 67.6246ZM433.125 733.333C283.623 733.333 159.039 623.771 136.576 479.805H147.63C166.703 479.805 183.719 469.591 192.917 454.079C196.987 447.23 199.537 439.351 200.048 430.853C202.939 383.524 219.007 339.935 244.646 303.655C280.122 253.462 333.925 217.267 396.598 204.575C407.76 202.318 419.202 200.805 430.871 200.091C438.666 199.622 445.948 197.44 452.39 193.933C452.503 193.872 452.611 193.805 452.722 193.743C453.32 193.411 453.915 193.076 454.498 192.721C454.892 192.482 455.275 192.226 455.662 191.977C455.956 191.788 456.256 191.607 456.545 191.413C457.039 191.082 457.518 190.733 458 190.385C458.173 190.258 458.354 190.141 458.526 190.013C459.02 189.646 459.5 189.263 459.979 188.88C460.131 188.76 460.287 188.646 460.437 188.523C460.84 188.193 461.228 187.849 461.62 187.508C461.837 187.319 462.062 187.138 462.276 186.946C462.506 186.74 462.723 186.524 462.948 186.313C473.356 176.634 479.802 162.785 479.802 147.654V136.584C623.773 159.023 733.318 283.591 733.318 433.107C733.32 598.922 598.918 733.333 433.125 733.333Z" fill="white"/>
<path d="M366.665 400.004C348.266 400.004 333.333 414.936 333.333 433.336C333.333 451.736 348.266 466.668 366.665 466.668C385.065 466.668 399.998 451.736 399.998 433.336C399.998 414.936 385.065 400.004 366.665 400.004Z" fill="white"/>
<path d="M499.997 400.004C481.598 400.004 466.665 414.936 466.665 433.336C466.665 451.736 481.598 466.668 499.997 466.668C518.397 466.668 533.33 451.736 533.33 433.336C533.33 414.936 518.397 400.004 499.997 400.004Z" fill="white"/>
</g>
<defs>
<clipPath id="clip0_1093_52">
<rect width="800" height="800" fill="white"/>
</clipPath>
</defs>
</svg>
