<svg width="800" height="800" viewBox="0 0 800 800" fill="none" xmlns="http://www.w3.org/2000/svg">
<path d="M100 216.666V149.999C100 134.511 100 126.767 101.281 120.327C106.541 93.8807 127.215 73.2073 153.661 67.947C160.101 66.666 167.845 66.666 183.333 66.666C198.822 66.666 206.566 66.666 213.006 67.947C239.452 73.2073 260.125 93.8807 265.386 120.327C266.667 126.767 266.667 134.511 266.667 149.999V158.333H533.333V149.999C533.333 134.511 533.333 126.767 534.613 120.327C539.873 93.8807 560.547 73.2073 586.993 67.947C593.433 66.666 601.177 66.666 616.667 66.666C632.157 66.666 639.9 66.666 646.34 67.947C672.787 73.2073 693.46 93.8807 698.72 120.327C700 126.767 700 134.511 700 149.999V216.666C700 232.155 700 239.899 698.72 246.339C693.46 272.785 672.787 293.458 646.34 298.718C639.9 299.999 632.157 299.999 616.667 299.999C601.177 299.999 593.433 299.999 586.993 298.718C560.547 293.458 539.873 272.785 534.613 246.339C533.333 239.899 533.333 232.155 533.333 216.666V208.333H425V591.666H533.333V583.333C533.333 567.843 533.333 560.099 534.613 553.659C539.873 527.213 560.547 506.539 586.993 501.279C593.433 499.999 601.177 499.999 616.667 499.999C632.157 499.999 639.9 499.999 646.34 501.279C672.787 506.539 693.46 527.213 698.72 553.659C700 560.099 700 567.843 700 583.333V649.999C700 665.489 700 673.233 698.72 679.673C693.46 706.119 672.787 726.793 646.34 732.053C639.9 733.333 632.157 733.333 616.667 733.333C601.177 733.333 593.433 733.333 586.993 732.053C560.547 726.793 539.873 706.119 534.613 679.673C533.333 673.233 533.333 665.489 533.333 649.999V641.666H266.667V649.999C266.667 665.489 266.667 673.233 265.386 679.673C260.125 706.119 239.452 726.793 213.006 732.053C206.566 733.333 198.822 733.333 183.333 733.333C167.845 733.333 160.101 733.333 153.661 732.053C127.215 726.793 106.541 706.119 101.281 679.673C100 673.233 100 665.489 100 649.999V583.333C100 567.843 100 560.099 101.281 553.659C106.541 527.213 127.215 506.539 153.661 501.279C160.101 499.999 167.845 499.999 183.333 499.999C198.822 499.999 206.566 499.999 213.006 501.279C239.452 506.539 260.125 527.213 265.386 553.659C266.667 560.099 266.667 567.843 266.667 583.333V591.666H375V208.333H266.667V216.666C266.667 232.155 266.667 239.899 265.386 246.339C260.125 272.785 239.452 293.458 213.006 298.718C206.566 299.999 198.822 299.999 183.333 299.999C167.845 299.999 160.101 299.999 153.661 298.718C127.215 293.458 106.541 272.785 101.281 246.339C100 239.899 100 232.155 100 216.666Z" fill="white"/>
</svg>
