<svg width="800" height="800" viewBox="0 0 800 800" fill="none" xmlns="http://www.w3.org/2000/svg">
<g clip-path="url(#clip0_1080_11)">
<path d="M366.462 757.877C352.677 758.954 340.8 758.738 338.092 757.477C335.877 756.431 340.646 751.446 346.585 746.554C353.477 740.862 347.2 735.046 343.877 732.092C332.738 722.185 322.154 711.415 312.185 699.938C309.723 697.108 303.938 691.354 292.892 691.538C275.354 691.846 253.169 692.615 250.369 691.292C248.338 690.338 260.031 680.585 271.446 671.415C281.354 663.446 277.354 653.2 274.492 648.492C265.292 633.385 257.015 617.477 249.6 600.862C248.062 597.415 243.385 590.862 232.769 590.677C216.123 590.431 197.2 591.569 194.615 590.369C192.585 589.385 207.262 575.538 222.062 563.262C225.477 560.431 230.892 553.846 227.631 540.492C222.985 521.262 217.815 501.846 214.646 481.662C213.877 476.738 209.723 466.831 198.677 467.108C183.569 467.569 168.308 467.754 166 466.677C164 465.723 179.108 452.185 195.723 439.815C200.215 436.523 207.292 434.092 208.615 416.8C208.985 411.908 208.308 406.985 208.308 402.031C208.308 385.385 208.892 368.985 210.8 352.892C212.585 337.969 203.6 334.954 198.646 335.2C183.415 335.969 167.969 336.738 165.723 335.662C163.508 334.615 185.508 318.769 206.769 305.692C211.046 303.108 218.369 298.092 222.369 284.615C227.908 266 232.615 247.385 239.538 229.815C245.785 213.938 233.015 211.292 226.554 211.415C210.154 211.723 196.8 212.585 194.185 211.385C191.723 210.215 219.846 194 246.062 183.108C252.154 180.554 263.262 175.631 273.692 158.954C281.569 146.4 290.246 134.554 298.4 122.585C306.431 110.831 297.569 109.262 292.246 109.262C272.062 109.262 254.492 110.831 251.446 109.354C248.615 108.062 293.262 90.8615 320.092 84.0923C325.938 82.6154 334.092 80.4615 344.831 71.6308C353.969 64.0923 362.615 56 372.185 49.2923C380.677 43.3231 373.785 42.0923 369.908 42.0308C347.631 41.7231 327.354 43.6615 324.031 42.0923C320.831 40.5846 380.923 29.7231 404.554 28.0923C425.323 16.2769 460.738 6.61538 483.662 0C477.723 0 472.708 0.0307692 470.769 0.184615H337.415C329.908 1.13846 297.815 -0.246154 292 0.184615C276.892 1.81538 266.462 3.35385 251.969 9.16923C242.431 13.0154 239.323 25.2923 245.815 27.9077C253.015 30.8 280.431 40.3077 277.077 42C274.308 43.3846 238.062 42 215.323 40.4308C206.277 39.7846 193.723 38.9846 188.431 42.8308C174.954 52.6154 179.138 50.4923 166.585 63.1385C161.6 68.1538 160.338 78.9846 167.538 82.3692C174.462 85.5692 208.031 108 203.538 110.246C199.692 112.185 152.892 115.477 141.446 114.4C130.123 113.354 124.154 114 119.723 120.308C108.738 135.969 107.569 141.508 98.4923 159.877C94.8923 167.138 95.2 180.185 100.677 182.985C106.154 185.754 132 198.062 147.754 211.2C129.969 209.754 95.5692 216.985 87.8769 216.985C80.1846 216.985 74.0615 217.385 71.3539 225.508C64.4308 246.123 63.1692 253.938 58.7385 275.692C57.0154 284.4 60.1539 293.231 66.8923 297.077C73.6308 300.923 124.615 335.477 119.415 335.2C110.769 334.708 66.1231 345.323 59.3846 345.446C52.6462 345.569 48.2462 350.831 47.5077 359.692C46.1231 376.277 46.7692 376.277 46.7692 393.231C46.8 399.323 46.8923 405.415 47.0769 411.415C47.3539 420.246 55.2615 429.846 62.6462 433.323C72.7385 438.123 124.523 463.569 119.908 465.908C116.092 467.815 69.2615 473.6 64.4615 473.754C53.5692 474.092 52.2462 484.985 53.5077 493.877C56.7077 516.185 56.9539 520.338 62.7385 541.662C64.4308 548.062 70.0615 553.846 75.8462 555.785C81.6308 557.723 154.831 587.6 150.185 589.938C146.338 591.877 102.462 600.246 95.5385 600.554C86.3385 601.046 87.2923 614.123 91.5077 623.631C99.9692 642.769 96 636.923 106.185 653.969C108.277 657.569 117.692 663.262 120.615 663.877C126.4 665.169 209.662 688.554 205.015 690.861C201.169 692.8 156.677 694.954 148.431 695.415C140.185 695.877 141.262 708.215 145.969 713.846C157.938 728.092 155.108 725.692 168.062 736.954C175.415 743.354 192.554 742.831 193.692 743.692C210.831 746.4 282.923 755.969 278.554 758.185C274.708 760.123 248.123 763.046 222.769 766.061C214.738 765.692 221.2 776.862 226.954 779.692C241.292 786.923 256.123 792.308 271.108 795.692C271.692 795.815 272.215 795.877 272.738 795.877C278.092 795.877 311.631 799.077 317.538 799.077C325.138 799.077 428.062 799.631 478.431 799.877C449.077 791.385 409.908 778.462 382.769 761.754C380.492 760.369 374.646 757.2 366.462 757.877Z" fill="white"/>
<path d="M752.277 363.015C751.723 353.938 747.046 347.446 740.431 348.031C740.277 348.062 740.123 348.4 739.939 348.431C738.985 337.354 737.815 326.369 736.154 315.569C736.339 315.538 736.462 315.569 736.585 315.508C742.369 313.138 745.846 304.062 744.277 295.262C740.339 273.231 735.046 251.477 728.646 230.677C726.185 222.338 713.016 218.892 713.016 218.892C713.016 218.892 706.8 203.631 702.892 194.277C703.016 194.123 703.2 194.185 703.323 194.062C708.246 188.862 709.508 178.585 706.062 171.108C697.446 152.308 687.631 134.523 677.016 118.215C672.8 111.754 656.923 112.431 656.8 112.677C655.354 110.277 650.339 103.908 644.523 96.9846C644.677 96.7077 644.862 96.8615 644.985 96.5846C648.523 89.1692 647.354 78.8308 642.492 73.5385C630.092 60.1846 616.954 48.4308 603.385 38.5538C597.908 34.6462 574.154 38.1231 574.154 38.1231L568.092 35.0462C568.185 34.8 568.339 34.7385 568.369 34.5538C570.031 25.7846 566.646 16.6462 560.892 14.1538C546.339 7.96923 531.354 3.63077 516.216 1.32308C511.816 0.461538 496.092 0.0615385 484.154 0C460.923 8 438.554 18.9846 417.385 32.7692C437.816 35.2 391.631 67.6923 395.169 48.6462C381.816 59.0462 369.108 70.6462 357.108 83.3846C376.677 85.2615 340.277 131.415 334.308 110.031C318.954 129.908 305.169 151.877 293.2 175.785C310.985 170.462 289.539 228.985 276.985 212.492C267.046 237.938 259.139 265.231 253.477 294.246C270.031 288.154 262.216 341.477 247.292 333.815C244.708 355.692 243.354 378.462 243.354 401.969C243.354 406.862 243.416 411.723 243.539 416.554C259.631 409.785 267.446 458.554 246.031 458.985C248.892 488.369 253.939 516.185 260.892 542.308C270.677 532.677 296.062 574.985 273.292 581.692C281.816 605.015 292 626.8 303.631 646.954C309.662 635.415 340.246 673.138 322.8 676.923C336.339 696.123 351.354 713.477 367.477 728.985C370.154 718 402.031 742.062 389.539 748.462C417.077 770.677 447.262 787.877 479.077 799.877C495.169 799.938 505.815 800 505.815 800C522.031 799.415 529.877 797.6 536.616 795.661C542.523 793.938 554.277 775.631 554.277 775.631C554.277 775.631 575.569 774.615 579.969 774.615C581.292 774.615 582.615 774.246 583.908 773.508C597.939 765.292 611.631 755.169 624.677 743.354C629.846 738.708 631.508 728.554 628.4 720.738C628.308 720.554 628.154 720.554 628.123 720.369C634.246 714.246 635.477 712.738 641.323 705.846C641.385 706.031 651.292 707.077 654.369 707.077C656.862 707.077 659.446 705.754 661.446 703.077C672.923 688.154 683.631 671.631 693.231 653.877C697.016 646.831 696.4 636.492 691.754 630.677C691.569 630.462 691.354 630.585 691.2 630.4C695.6 621.477 698.8 615.508 702.769 605.969C702.892 606.123 707.662 605.538 709.508 605.538C713.292 605.538 716.892 602.523 718.954 597.2C726.462 577.323 732.8 556.308 737.939 534.738C739.969 526.154 736.985 516.708 731.323 513.6C731.231 513.569 731.139 513.662 731.046 513.631C733.231 503.046 734.985 492.246 736.554 481.323C736.708 481.354 736.739 481.6 736.862 481.631C737.508 481.785 738.154 481.846 738.739 481.846C744 481.846 748.585 476.154 749.508 468.154C752.062 445.662 753.385 422.585 753.385 399.569C753.354 387.262 752.985 375.046 752.277 363.015ZM507.292 654.246C423.446 654.246 355.477 540.431 355.477 400.092C355.477 259.692 423.446 145.908 507.292 145.908C591.169 145.908 659.077 259.692 659.077 400.092C659.077 540.4 591.169 654.246 507.292 654.246Z" fill="white"/>
</g>
<defs>
<clipPath id="clip0_1080_11">
<rect width="800" height="800" fill="white"/>
</clipPath>
</defs>
</svg>
