<svg width="512" height="512" viewBox="0 0 512 512" fill="none" xmlns="http://www.w3.org/2000/svg">
<path d="M420.379 110.485V67.3686H393.432V13.4746H334.148V67.3696H307.2V110.486H199.41V67.3686H172.463V13.4746H113.179V67.3696H86.232V110.486H0V196.718H21.558V220.968H37.726V196.718H474.273V320.676H37.726V242.531H21.558V498.529H272.173V482.361H37.726V336.843H474.273V482.359H293.727V498.527H490.442V196.717H512V110.485H420.379ZM350.316 29.6426H377.263V67.3686H350.316V29.6426ZM323.368 83.5376H404.21V110.485H323.368V83.5376ZM129.347 29.6426H156.294V67.3686H129.347V29.6426ZM102.4 83.5376H183.242V110.485H102.4V83.5376ZM495.832 180.548H16.168V126.653H495.831V180.548H495.832Z" fill="white"/>
<path d="M353.01 142.82H40.421V158.988H353.01V142.82Z" fill="white"/>
<path d="M406.905 142.82H374.568V158.988H406.905V142.82Z" fill="white"/>
<path d="M113.179 255.999V231.746H97.0111V255.999H72.7581V272.167H97.0111V296.42H113.179V272.167H137.432V255.999H113.179Z" fill="white"/>
<path d="M439.242 256H374.568V272.168H439.242V256Z" fill="white"/>
<path d="M264.084 215.578H247.916V301.81H264.084V215.578Z" fill="white"/>
<path d="M59.2841 358.4V420.379H75.4531V374.568H110.484V358.4H59.2841Z" fill="white"/>
<path d="M75.4521 431.158H59.2841V452.716H75.4521V431.158Z" fill="white"/>
</svg>
