<svg width="71" height="137" viewBox="0 0 71 137" fill="none" xmlns="http://www.w3.org/2000/svg">
<path d="M20.0255 78.5974C26.8607 85.4327 36.3249 84.2042 36.3249 84.2042C36.3249 84.2042 37.5536 74.74 30.7182 67.9048C23.1065 60.2931 10.6229 58.502 10.6229 58.502C10.6229 58.502 12.3941 70.966 20.0255 78.5974Z" fill="#8DD9BA"/>
<path d="M52.6743 50.5716C46.42 56.8259 37.7606 55.7018 37.7606 55.7018C37.7606 55.7018 36.6364 47.0423 42.8907 40.788C49.8554 33.8233 61.2779 32.1846 61.2779 32.1846C61.2779 32.1846 59.6573 43.5888 52.6743 50.5716Z" fill="#8DD9BA"/>
<path d="M23.1516 23.9626C28.7334 29.5445 36.4616 28.5412 36.4616 28.5412C36.4616 28.5412 37.4649 20.813 31.8831 15.2312C25.6672 9.01525 15.4732 7.55273 15.4732 7.55273C15.4732 7.55273 16.9198 17.7306 23.1516 23.9626Z" fill="#8DD9BA"/>
<path d="M37.075 5.83409C36.8854 5.83409 36.6931 5.81358 36.5063 5.77574C36.3197 5.7379 36.1359 5.68234 35.961 5.60945C35.7832 5.53657 35.6139 5.44616 35.4566 5.34121C35.2963 5.23626 35.1475 5.11378 35.0133 4.97956C34.4708 4.43709 34.1588 3.68472 34.1588 2.91782C34.1588 2.72524 34.1793 2.53586 34.2171 2.34627C34.2522 2.15967 34.3105 1.97586 34.3834 1.80101C34.4563 1.62597 34.5467 1.45689 34.6516 1.29937C34.7566 1.13906 34.8791 0.990296 35.0133 0.853086C35.1475 0.718862 35.2961 0.599375 35.4566 0.491439C35.6141 0.38649 35.7832 0.296078 35.961 0.223191C36.1361 0.150304 36.3197 0.0949422 36.5063 0.0569056C36.8825 -0.0189685 37.2704 -0.0189685 37.6436 0.0569056C37.8302 0.094743 38.014 0.150304 38.1886 0.223191C38.3665 0.296078 38.5358 0.38649 38.6931 0.491439C38.8534 0.599375 39.0021 0.718862 39.1364 0.853086C39.2708 0.990097 39.3933 1.13886 39.498 1.29937C39.603 1.45689 39.6934 1.62597 39.7663 1.80101C39.8392 1.97606 39.8975 2.15967 39.9326 2.34627C39.9704 2.53586 39.9909 2.72823 39.9909 2.91782C39.9909 3.68472 39.6788 4.43729 39.1362 4.97956C39.0019 5.11378 38.8532 5.23626 38.6929 5.34121C38.5354 5.44616 38.3663 5.53657 38.1884 5.60945C38.0134 5.68234 37.83 5.7377 37.6434 5.77574C37.4568 5.81358 37.2646 5.83409 37.075 5.83409Z" fill="#403F3F"/>
<path d="M54.1227 78.5974C47.2874 85.4327 37.8233 84.2042 37.8233 84.2042C37.8233 84.2042 36.5946 74.74 43.43 67.9048C51.0417 60.2931 63.5253 58.502 63.5253 58.502C63.5253 58.502 61.7541 70.966 54.1227 78.5974Z" fill="#C9E8A0"/>
<path d="M21.4731 50.5708C27.7274 56.8251 36.3868 55.701 36.3868 55.701C36.3868 55.701 37.511 47.0416 31.2566 40.7872C24.2921 33.8226 12.8694 32.1836 12.8694 32.1836C12.8694 32.1836 14.4904 43.588 21.4731 50.5708Z" fill="#C9E8A0"/>
<path d="M50.9945 23.9617C45.4127 29.5435 37.6845 28.5402 37.6845 28.5402C37.6845 28.5402 36.6812 20.812 42.263 15.2302C48.4789 9.01428 58.6729 7.55176 58.6729 7.55176C58.6729 7.55176 57.2263 17.7296 50.9945 23.9617Z" fill="#C9E8A0"/>
<path d="M36.4953 88.9391L63.8989 115.108L36.4953 128.834L6.62603 97.4364L36.4953 88.9391Z" fill="#8DD9BA"/>
<path d="M36.9761 85.9645L64.3797 112.134L36.9761 125.859L7.10681 94.4618L36.9761 85.9645Z" fill="#716054"/>
<path d="M37.7357 83.6617L65.1393 109.831L37.7357 123.557L7.86639 92.159L37.7357 83.6617Z" fill="url(#paint0_linear_868_112)"/>
<path d="M37.075 101.962C36.8854 101.962 36.6931 101.944 36.5063 101.907C36.3197 101.869 36.1359 101.813 35.961 101.74C35.7832 101.667 35.6139 101.577 35.4566 101.472C35.2963 101.364 35.1475 101.245 35.0133 101.11C34.8791 100.973 34.7566 100.825 34.6516 100.664C34.5467 100.507 34.4563 100.338 34.3834 100.162C34.3105 99.9847 34.2522 99.8038 34.2171 99.6172C34.1793 99.4276 34.1588 99.2353 34.1588 99.0457C34.1588 98.8561 34.1793 98.6637 34.2171 98.4769C34.2522 98.2903 34.3105 98.1065 34.3834 97.9317C34.4563 97.7568 34.5467 97.5846 34.6516 97.4272C34.7566 97.2669 34.8791 97.1182 35.0133 96.9839C35.1475 96.8497 35.2963 96.7272 35.4566 96.6223C35.6141 96.5174 35.7832 96.4269 35.961 96.354C36.1361 96.2812 36.3197 96.2258 36.5063 96.1878C36.8825 96.1119 37.2704 96.1119 37.6436 96.1878C37.8302 96.2256 38.014 96.2812 38.1886 96.354C38.3665 96.4269 38.5358 96.5174 38.6931 96.6223C38.8534 96.7272 39.0021 96.8497 39.1364 96.9839C39.2708 97.1182 39.3933 97.2669 39.498 97.4272C39.603 97.5848 39.6934 97.7568 39.7663 97.9317C39.8392 98.1067 39.8975 98.2903 39.9326 98.4769C39.9704 98.6635 39.9909 98.8561 39.9909 99.0457C39.9909 99.2353 39.9704 99.4276 39.9326 99.6172C39.8975 99.8038 39.8392 99.9847 39.7663 100.162C39.6934 100.338 39.603 100.507 39.498 100.664C39.3933 100.824 39.2708 100.973 39.1364 101.11C39.0021 101.245 38.8534 101.364 38.6931 101.472C38.5356 101.577 38.3665 101.667 38.1886 101.74C38.0136 101.813 37.8302 101.869 37.6436 101.907C37.4568 101.944 37.2646 101.962 37.075 101.962Z" fill="#403F3F"/>
<path d="M35.9255 93.3398L49.3588 99.8955L43.1219 112.351L24.8911 103.829L35.9255 93.3398Z" fill="url(#paint1_radial_868_112)"/>
<path d="M65.5856 56.4386C64.9358 55.7898 64.0176 55.4847 63.1109 55.6153C62.5616 55.694 49.5716 57.6386 41.3673 65.8426C40.8718 66.338 40.414 66.8453 39.9894 67.3599V58.6873C43.4581 58.5925 49.7208 57.648 54.7352 52.6339C62.3189 45.0503 64.0921 33.1 64.1637 32.595C64.293 31.6863 63.9867 30.7696 63.3373 30.121C62.6875 29.4722 61.7698 29.1677 60.8625 29.2977C60.3569 29.3704 48.3917 31.1615 40.8274 38.7258C40.5329 39.0204 40.257 39.3207 39.9898 39.6232V31.5065C43.1916 31.3716 48.6556 30.4265 53.058 26.0244C59.8995 19.183 61.4968 8.41744 61.5611 7.96239C61.6904 7.0537 61.3841 6.13703 60.7347 5.48882C60.0849 4.8402 59.1668 4.53492 58.2599 4.66555C57.8041 4.73087 47.026 6.34454 40.2021 13.1684C40.1288 13.2417 40.0613 13.3168 39.9898 13.3909V11.6655C39.9898 10.0548 38.6838 8.74921 37.0735 8.74921C35.4628 8.74921 34.1572 10.0548 34.1572 11.6655V13.3909C34.0857 13.3172 34.0184 13.2419 33.9449 13.1684C27.1211 6.34454 16.3426 4.73087 15.8871 4.66555C14.9792 4.53452 14.0618 4.8402 13.4119 5.48882C12.7625 6.13743 12.4563 7.05409 12.5855 7.96279C12.6502 8.41784 14.2476 19.183 21.089 26.0244C25.4917 30.4271 30.9558 31.372 34.1572 31.5065V39.6234C33.8902 39.3209 33.6142 39.0206 33.3196 38.7261C25.7553 31.1617 13.7901 29.3702 13.2845 29.2979C12.3764 29.1675 11.4589 29.4726 10.8093 30.1212C10.1599 30.7698 9.85363 31.6865 9.98288 32.5952C10.0546 33.1 11.8277 45.0503 19.4116 52.6341C24.4258 57.6488 30.6889 58.5931 34.1574 58.6875V67.3604C33.7329 66.8457 33.2752 66.3386 32.7796 65.8432C24.5756 57.639 11.5852 55.6944 11.0363 55.6157C10.1283 55.4847 9.21079 55.7904 8.56118 56.439C7.91177 57.0876 7.60549 58.0042 7.73473 58.9129C7.8126 59.4612 9.73773 72.4351 17.9626 80.6603C23.5116 86.2093 30.4754 87.1427 34.1572 87.2034V90.2985C34.1572 91.9092 35.4628 93.2148 37.0735 93.2148C38.684 93.2148 39.9898 91.9092 39.9898 90.2985V87.2034C43.6726 87.1427 50.6364 86.2087 56.1848 80.6603C64.4097 72.4351 66.3348 59.4612 66.4123 58.9129C66.5415 58.0036 66.235 57.087 65.5856 56.4386ZM44.9515 42.8505C48.6056 39.196 53.7672 37.147 57.3892 36.0806C56.331 39.6913 54.2884 44.8318 50.6106 48.51C47.3603 51.7603 43.2309 52.6194 40.6344 52.8119C40.8178 50.2266 41.6726 46.1292 44.9515 42.8505ZM44.3262 17.2929C47.3603 14.2585 51.585 12.4796 54.7374 11.4978C53.7628 14.6387 51.9882 18.8452 48.9334 21.9001C46.2551 24.5784 42.884 25.3933 40.6111 25.6158C40.8336 23.3399 41.6487 19.9702 44.3262 17.2929ZM25.2131 21.9001C22.1755 18.8626 20.3981 14.6487 19.4179 11.5008C22.5704 12.4834 26.7889 14.2617 29.8199 17.2927C32.498 19.971 33.3131 23.3423 33.5355 25.6154C31.2599 25.3925 27.89 24.5774 25.2131 21.9001ZM23.5357 48.5098C19.8762 44.8503 17.83 39.7009 16.7651 36.083C20.3882 37.1504 25.5438 39.199 29.1952 42.8505C32.438 46.0934 33.3007 50.2123 33.4955 52.8098C30.8941 52.6146 26.7771 51.7513 23.5357 48.5098ZM22.0863 76.5352C17.8833 72.3323 15.6105 66.3576 14.4806 62.3587C18.4768 63.4861 24.4436 65.7563 28.6549 69.9671C32.3966 73.7088 33.2866 78.4918 33.4549 81.3496C30.6083 81.1914 25.8589 80.3074 22.0863 76.5352ZM52.0599 76.5352C48.325 80.2702 43.5525 81.1638 40.6928 81.3346C40.8636 78.4713 41.7578 73.7008 45.4916 69.9671C49.6857 65.7729 55.668 63.4972 59.6712 62.3641C58.5473 66.3558 56.2804 72.315 52.0599 76.5352Z" fill="#403F3F"/>
<defs>
<linearGradient id="paint0_linear_868_112" x1="31.2803" y1="98.4872" x2="9.26577" y2="91.5353" gradientUnits="userSpaceOnUse">
<stop stop-color="#C8E8A0"/>
<stop offset="1" stop-color="#74865C"/>
</linearGradient>
<radialGradient id="paint1_radial_868_112" cx="0" cy="0" r="1" gradientUnits="userSpaceOnUse" gradientTransform="translate(37.1249 102.846) rotate(90) scale(9.50574 12.2339)">
<stop stop-color="#5C5C5C"/>
<stop offset="0.41" stop-color="#1E1E1E" stop-opacity="0"/>
</radialGradient>
</defs>
</svg>
